<svg xmlns="http://www.w3.org/2000/svg" width="784px" height="784px" viewBox="0 0 10240 10240" preserveAspectRatio="xMidYMid meet"><g fill="#b07b46"><path d="M 1770 4845 c 0 -14 -4 -25 -10 -25 -5 0 -10 -11 -10 -24 0 -13 -4 -26 -9 -28 -18 -6 -92 -264 -127 -436 -25 -130 -33 -190 -28 -225 3 -27 8 -47 10 -44 2 2 11 32 19 68 14 64 14 64 10 9 -6 -73 5 -41 50 150 19 80 57 205 84 279 28 73 48 138 44 144 -3 6 -18 -5 -34 -24 -29 -34 -29 -34 -10 21 10 30 28 79 40 108 21 52 21 52 -4 52 -20 0 -25 -5 -25 -25 z  m -33 -222 c -4 -3 -7 0 -7 7 0 7 3 10 7 7 3 -4 3 -10 0 -14 z  m -10 -30 c -4 -3 -7 0 -7 7 0 7 3 10 7 7 3 -4 3 -10 0 -14 z  m -10 -30 c -4 -3 -7 0 -7 7 0 7 3 10 7 7 3 -4 3 -10 0 -14 z  m -10 -30 c -4 -3 -7 0 -7 7 0 7 3 10 7 7 3 -4 3 -10 0 -14 z  m -10 -30 c -4 -3 -7 0 -7 7 0 7 3 10 7 7 3 -4 3 -10 0 -14 z  m -10 -40 c -4 -3 -7 0 -7 7 0 7 3 10 7 7 3 -4 3 -10 0 -14 z "/><path d="M 1937 4821 c -22 -37 -21 -41 3 -41 16 0 20 -7 20 -30 0 -41 16 -38 40 10 25 49 25 50 -5 50 -18 0 -25 5 -25 20 0 28 -13 25 -33 -9 z "/><path d="M 1822 4813 c -12 -30 -15 -49 -13 -73 2 -27 28 23 33 63 5 44 -5 48 -20 10 z "/><path d="M 2570 4805 c 0 -33 2 -35 35 -35 33 0 35 2 35 35 0 33 -2 35 -35 35 -33 0 -35 -2 -35 -35 z "/><path d="M 8430 4795 c 0 -40 24 -49 34 -12 10 37 7 47 -14 47 -16 0 -20 -7 -20 -35 z "/><path d="M 8120 4775 c 0 -28 4 -35 20 -35 21 0 24 10 14 48 -10 36 -34 27 -34 -13 z "/><path d="M 2146 4778 c -10 -38 -7 -48 14 -48 16 0 20 7 20 35 0 40 -24 49 -34 13 z "/><path d="M 8370 4775 c 0 -15 42 -85 51 -85 17 0 22 29 9 60 -9 21 -19 30 -36 30 -13 0 -24 -2 -24 -5 z "/><path d="M 8693 4715 c 6 -19 16 -35 24 -35 8 0 13 13 13 35 0 30 -3 35 -24 35 -23 0 -24 -2 -13 -35 z "/><path d="M 2140 4638 c 0 -30 13 -58 26 -58 9 0 14 12 14 35 0 28 -4 35 -20 35 -11 0 -20 -6 -20 -12 z "/><path d="M 1950 4621 c 0 -10 3 -39 6 -65 5 -37 11 -46 26 -46 21 0 21 5 2 103 -6 30 -34 37 -34 8 z "/><path d="M 8120 4595 c 0 -40 24 -49 34 -12 10 37 7 47 -14 47 -16 0 -20 -7 -20 -35 z "/><path d="M 8840 4571 c 0 -45 10 -61 36 -61 29 0 29 1 4 50 -24 47 -40 51 -40 11 z "/><path d="M 8676 4548 c -10 -38 -7 -48 14 -48 16 0 20 7 20 35 0 40 -24 49 -34 13 z "/><path d="M 1980 4473 c 0 -51 11 -73 35 -73 23 0 23 0 7 50 -17 54 -42 68 -42 23 z "/><path d="M 8335 4422 c -95 -139 -249 -302 -335 -357 -25 -16 -67 -49 -95 -74 -38 -35 -42 -38 -19 -11 17 19 46 55 64 79 34 44 34 44 5 26 -17 -11 -53 -39 -80 -64 -77 -69 -104 -91 -115 -91 -6 0 -10 -4 -10 -10 0 -5 -18 -13 -41 -16 -30 -5 -57 -21 -98 -57 -31 -27 -66 -54 -78 -59 -23 -11 -33 -35 -33 -80 0 -33 25 -38 33 -8 3 12 14 20 25 20 31 0 278 130 378 198 106 72 243 204 308 294 43 62 142 255 134 263 -2 2 -21 -22 -43 -53 z "/><path d="M 2210 4330 c 29 -73 56 -124 74 -139 14 -12 16 -9 16 23 0 20 -4 36 -9 36 -5 0 -11 13 -14 29 -3 16 -13 36 -22 44 -8 9 -15 25 -15 36 0 16 -6 21 -25 21 -25 0 -25 0 -5 -50 z "/><path d="M 2030 4341 c 0 -39 9 -61 26 -61 8 0 14 -10 14 -25 0 -20 5 -25 25 -25 14 0 25 2 25 5 0 13 -73 135 -81 135 -5 0 -9 -13 -9 -29 z "/><path d="M 8060 4335 c 0 -14 -4 -25 -10 -25 -5 0 -10 -16 -10 -35 0 -19 4 -35 9 -35 12 0 15 5 40 68 21 52 21 52 -4 52 -20 0 -25 -5 -25 -25 z "/><path d="M 1770 4255 c 0 -40 24 -49 34 -12 10 37 7 47 -14 47 -16 0 -20 -7 -20 -35 z "/><path d="M 1831 4274 c 0 -11 3 -14 6 -6 3 7 2 16 -1 19 -3 4 -6 -2 -5 -13 z "/><path d="M 8480 4135 c 0 -28 4 -35 20 -35 21 0 24 10 14 48 -10 36 -34 27 -34 -13 z "/><path d="M 1790 4045 c 0 -31 3 -35 25 -35 29 0 30 2 10 40 -21 40 -35 38 -35 -5 z "/><path d="M 1930 4054 c 0 -12 34 -64 42 -64 4 0 8 16 8 35 0 31 -3 35 -25 35 -14 0 -25 -3 -25 -6 z "/><path d="M 8238 4010 c -28 -35 -28 -35 -2 -38 33 -4 36 -1 32 39 -3 34 -3 34 -30 -1 z "/><path d="M 1550 3955 c 0 -40 24 -49 34 -12 10 37 7 47 -14 47 -16 0 -20 -7 -20 -35 z "/><path d="M 8532 3933 c 3 -21 13 -89 24 -150 16 -94 22 -113 37 -113 21 0 20 -6 2 106 -25 156 -35 194 -52 194 -12 0 -14 -9 -11 -37 z "/><path d="M 1626 3938 c -10 -38 -7 -48 14 -48 16 0 20 7 20 35 0 40 -24 49 -34 13 z "/><path d="M 8040 3820 c -35 -29 -35 -29 3 -30 35 0 37 2 37 30 0 17 -1 30 -3 30 -1 0 -18 -13 -37 -30 z "/><path d="M 8680 3788 c 0 -39 12 -68 26 -68 10 0 14 13 14 45 0 38 -3 45 -20 45 -14 0 -20 -7 -20 -22 z "/><path d="M 7948 3762 c -37 -22 -35 -32 7 -32 31 0 35 3 35 25 0 29 -6 30 -42 7 z "/><path d="M 7838 3704 c -38 -20 -35 -34 7 -34 31 0 35 3 35 25 0 29 -5 30 -42 9 z "/><path d="M 8690 3678 c 0 -30 13 -58 26 -58 9 0 14 12 14 35 0 28 -4 35 -20 35 -11 0 -20 -6 -20 -12 z "/><path d="M 7850 3634 c 0 -14 3 -24 8 -22 73 35 80 48 27 48 -31 0 -35 -3 -35 -26 z "/><path d="M 7521 3598 c -1 -35 1 -38 27 -38 48 0 72 11 72 32 0 17 -5 20 -27 15 -16 -3 -36 -9 -45 -12 -12 -5 -18 0 -21 17 -3 15 -5 10 -6 -14 z "/><path d="M 8169 3578 c -78 -93 -76 -88 -40 -88 29 0 31 2 31 35 0 32 2 35 30 35 28 0 30 3 30 35 0 19 -1 35 -3 35 -2 0 -23 -24 -48 -52 z "/><path d="M 8580 3590 c 0 -33 3 -40 20 -40 21 0 25 16 14 58 -11 39 -34 27 -34 -18 z "/><path d="M 7760 3595 c 0 -24 1 -25 32 -12 46 19 48 37 4 37 -32 0 -36 -3 -36 -25 z "/><path d="M 7610 3535 c 0 -24 1 -25 32 -12 46 19 48 37 4 37 -32 0 -36 -3 -36 -25 z "/><path d="M 7521 3493 c 1 -21 3 -30 6 -21 2 9 17 20 34 23 42 9 38 35 -6 35 -34 0 -35 -1 -34 -37 z "/><path d="M 8010 3410 c -35 -29 -35 -29 3 -30 35 0 37 2 37 30 0 17 -1 30 -3 30 -1 0 -18 -13 -37 -30 z "/><path d="M 8651 3404 c 0 -11 3 -14 6 -6 3 7 2 16 -1 19 -3 4 -6 -2 -5 -13 z "/><path d="M 8611 3388 c 0 -10 -7 -18 -14 -18 -12 0 -24 -67 -44 -237 -3 -24 -9 -43 -13 -43 -5 0 -11 -19 -15 -42 -4 -24 -11 -45 -14 -48 -4 -3 -20 -35 -36 -72 -15 -38 -31 -68 -35 -68 -16 0 -31 -60 -28 -116 3 -59 3 -59 42 -59 30 0 42 5 54 25 11 18 12 21 2 13 -8 -7 -21 -13 -30 -13 -13 0 -4 25 40 113 82 165 131 355 129 497 -1 45 -3 49 -9 25 -7 -30 -7 -30 -13 -5 -3 14 -8 34 -10 45 -4 16 -5 16 -6 3 z  m 6 -125 c -3 -10 -5 -2 -5 17 0 19 2 27 5 18 2 -10 2 -26 0 -35 z  m -10 -65 c -3 -7 -5 -2 -5 12 0 14 2 19 5 13 2 -7 2 -19 0 -25 z  m -10 -50 c -3 -8 -6 -5 -6 6 -1 11 2 17 5 13 3 -3 4 -12 1 -19 z  m -10 -45 c -4 -3 -7 0 -7 7 0 7 3 10 7 7 3 -4 3 -10 0 -14 z  m -10 -35 c -3 -8 -6 -5 -6 6 -1 11 2 17 5 13 3 -3 4 -12 1 -19 z  m -10 -35 c -4 -3 -7 0 -7 7 0 7 3 10 7 7 3 -4 3 -10 0 -14 z  m -20 -60 c -4 -3 -7 0 -7 7 0 7 3 10 7 7 3 -4 3 -10 0 -14 z "/><path d="M 7500 3323 c 0 -70 25 -95 47 -48 6 14 7 25 2 25 -5 0 -11 11 -15 25 -9 34 -34 32 -34 -2 z "/><path d="M 7895 3309 c -85 -69 -85 -69 -42 -69 33 0 37 3 37 25 0 21 5 25 30 25 27 0 30 3 30 30 0 17 -1 30 -3 30 -1 0 -25 -18 -52 -41 z "/><path d="M 7771 3206 c -9 -11 -7 -15 11 -20 38 -10 48 -7 48 14 0 24 -41 28 -59 6 z "/><path d="M 7520 3195 c 0 -8 -4 -15 -10 -15 -6 0 -10 -37 -10 -90 0 -70 3 -90 14 -90 8 0 16 10 19 23 10 40 7 187 -3 187 -6 0 -10 -7 -10 -15 z "/><path d="M 7860 3196 c 0 -13 28 -26 58 -26 6 0 12 9 12 20 0 16 -7 20 -35 20 -23 0 -35 -5 -35 -14 z "/><path d="M2407.3081033401247 3034.9698130412569 C 2407.3081033401247 3077.0055283148768 2373.2314231755531 3111.0822084794484 2331.1957079019332 3111.0822084794484 2289.1599926283134 3111.0822084794484 2255.0833124637418 3077.0055283148768 2255.0833124637418 3034.9698130412569 2255.0833124637418 2992.934097767637 2289.1599926283134 2958.8574176030654 2331.1957079019332 2958.8574176030654 2373.2314231755531 2958.8574176030654 2407.3081033401247 2992.934097767637 2407.3081033401247 3034.9698130412569 Z M2320.0 3100.0  m 38 -27 c 20 -5 23 -10 18 -36 -3 -17 -8 -32 -9 -33 -2 -2 -20 1 -41 7 -27 8 -36 15 -32 26 3 8 6 21 6 29 0 15 20 18 58 7 z "/><path d="M 1990 2975 c 0 -33 2 -35 35 -35 33 0 35 2 35 35 0 33 -2 35 -35 35 -33 0 -35 -2 -35 -35 z "/><path d="M 8320 2954 c 45 -45 45 -45 48 -14 4 42 -13 60 -56 60 -36 0 -36 0 8 -46 z "/><path d="M 4910 2976 c 0 -13 28 -26 58 -26 6 0 12 9 12 20 0 16 -7 20 -35 20 -23 0 -35 -5 -35 -14 z "/><path d="M 5000 2966 c 0 -13 28 -26 58 -26 6 0 12 9 12 20 0 16 -7 20 -35 20 -23 0 -35 -5 -35 -14 z "/><path d="M 5120 2956 c 0 -7 10 -16 23 -20 41 -11 57 -7 57 14 0 17 -7 20 -40 20 -27 0 -40 -4 -40 -14 z "/><path d="M 7370 2961 c -55 -6 -55 -6 -58 -43 -3 -38 -3 -38 67 -38 88 0 95 19 9 22 -54 1 -56 2 -18 5 24 3 47 8 50 11 3 4 18 12 34 17 16 6 31 16 34 23 4 13 -18 14 -118 3 z  m 17 -37 c -3 -3 -12 -4 -19 -1 -8 3 -5 6 6 6 11 1 17 -2 13 -5 z "/><path d="M 4810 2915 c 0 -22 -4 -25 -35 -25 -33 0 -35 -2 -35 -35 0 -19 5 -35 10 -35 6 0 10 -6 10 -14 0 -17 22 -26 61 -26 41 0 36 13 -15 41 -44 23 -44 23 15 66 32 24 59 45 59 48 0 3 -16 5 -35 5 -31 0 -35 -3 -35 -25 z "/><path d="M 8170 2880 c 0 -16 7 -20 30 -20 28 0 30 -2 30 -40 0 -34 3 -40 21 -40 19 0 21 4 16 36 -10 61 -97 118 -97 64 z "/><path d="M 5430 2865 c 23 -25 23 -25 -216 -25 -144 0 -233 -4 -224 -9 36 -21 197 -43 360 -48 151 -5 179 -8 203 -25 27 -19 27 -19 27 11 0 20 -5 31 -14 31 -8 0 -16 7 -20 15 -3 8 -12 15 -21 15 -8 0 -15 6 -15 13 0 24 -35 47 -70 47 -33 0 -33 0 -10 -25 z "/><path d="M 4640 2806 c 0 -7 8 -16 18 -19 9 -2 25 -8 35 -12 14 -6 17 -2 17 19 0 23 -4 26 -35 26 -23 0 -35 -5 -35 -14 z "/><path d="M 8557 2791 c -22 -38 -22 -41 8 -41 22 0 25 4 25 35 0 43 -10 44 -33 6 z "/><path d="M 8345 2780 c -9 -40 3 -90 21 -90 10 0 14 15 14 60 0 45 -4 60 -14 60 -8 0 -17 -13 -21 -30 z "/><path d="M 4560 2763 c 1 -32 3 -35 13 -22 7 9 22 21 35 28 32 17 27 31 -13 31 -34 0 -35 -1 -35 -37 z "/><path d="M 7220 2775 c 0 -8 -9 -15 -19 -15 -38 0 -51 -11 -51 -46 0 -19 5 -34 10 -34 6 0 10 6 10 14 0 8 9 17 20 21 11 3 28 17 39 31 25 32 28 31 23 -11 -4 -30 -1 -35 17 -35 18 0 21 6 21 45 0 45 0 45 -35 45 -24 0 -35 -5 -35 -15 z "/><path d="M 2334 2674 c -8 -64 0 -74 54 -74 22 0 32 -5 32 -15 0 -10 11 -15 35 -15 52 0 43 16 -29 49 -56 25 -64 32 -59 51 5 17 11 20 30 15 13 -3 274 -114 581 -247 791 -342 1123 -484 1154 -491 50 -13 48 -17 181 473 72 264 72 264 105 274 44 12 42 36 -3 36 -28 0 -35 -4 -35 -20 0 -13 -7 -20 -18 -20 -14 0 -21 -13 -30 -51 -7 -28 -12 -61 -12 -74 0 -13 -4 -25 -10 -27 -5 -1 -13 -25 -16 -53 -4 -27 -10 -52 -14 -55 -7 -6 -110 -378 -110 -398 0 -37 -58 -55 -86 -27 -9 8 -26 15 -40 15 -13 0 -24 4 -24 9 0 12 -80 41 -113 41 -16 0 -27 5 -27 14 0 13 -71 46 -99 46 -7 0 -19 7 -27 15 -9 8 -26 15 -40 15 -13 0 -24 4 -24 8 0 13 -121 62 -152 62 -18 0 -28 5 -28 15 0 10 -11 15 -35 15 -24 0 -35 5 -35 15 0 10 -11 15 -35 15 -23 0 -35 5 -35 14 0 14 -21 26 -47 26 -8 0 -21 7 -29 15 -9 8 -24 15 -35 15 -11 0 -27 7 -35 15 -9 8 -31 15 -50 15 -22 0 -34 5 -34 14 0 14 -21 26 -47 26 -8 0 -21 7 -29 15 -9 8 -24 15 -35 15 -11 0 -27 7 -35 15 -9 8 -24 15 -35 15 -11 0 -27 7 -35 15 -9 8 -26 15 -40 15 -13 0 -24 4 -24 8 0 11 -45 32 -66 32 -9 0 -22 7 -30 15 -9 8 -24 15 -35 15 -11 0 -27 7 -35 15 -9 8 -24 15 -35 15 -11 0 -27 7 -35 15 -9 8 -24 15 -35 15 -11 0 -27 7 -35 15 -9 8 -26 15 -40 15 -13 0 -24 5 -24 10 0 6 -9 10 -21 10 -11 0 -27 7 -35 15 -9 8 -33 15 -54 15 -39 0 -39 0 -46 -56 z "/><path d="M 2240 2685 c 0 -33 2 -35 35 -35 33 0 35 2 35 35 0 33 -2 35 -35 35 -33 0 -35 -2 -35 -35 z "/><path d="M 5615 2710 c 3 -5 19 -19 35 -30 30 -21 30 -21 30 9 0 29 -3 31 -36 31 -20 0 -33 -4 -29 -10 z "/><path d="M 4902 2678 c 3 -7 19 -18 36 -25 31 -13 32 -12 32 12 0 22 -4 25 -36 25 -23 0 -34 -4 -32 -12 z "/><path d="M 8410 2640 c 0 -5 9 -14 21 -21 27 -14 89 -3 89 16 0 11 -14 15 -55 15 -30 0 -55 -4 -55 -10 z "/><path d="M 5220 2620 c 0 -16 7 -20 35 -20 40 0 49 24 13 34 -38 10 -48 7 -48 -14 z "/><path d="M 2510 2555 c 0 -22 4 -25 36 -25 44 0 42 18 -4 37 -31 13 -32 12 -32 -12 z "/><path d="M 4680 2560 c 0 -16 7 -20 35 -20 40 0 49 24 13 34 -38 10 -48 7 -48 -14 z "/><path d="M 4770 2550 c 0 -16 7 -20 35 -20 40 0 49 24 13 34 -38 10 -48 7 -48 -14 z "/><path d="M 4880 2540 c 0 -16 7 -20 35 -20 40 0 49 24 13 34 -38 10 -48 7 -48 -14 z "/><path d="M 7130 2525 c 0 -23 -3 -25 -50 -25 -36 0 -50 -4 -50 -14 0 -14 29 -26 68 -26 13 0 34 11 47 25 31 30 33 65 5 65 -15 0 -20 -7 -20 -25 z "/><path d="M 2600 2515 c 0 -22 4 -25 36 -25 44 0 42 18 -4 37 -31 13 -32 12 -32 -12 z "/><path d="M 2690 2475 c 0 -22 4 -25 36 -25 44 0 42 18 -4 37 -31 13 -32 12 -32 -12 z "/><path d="M 6910 2445 c 0 -40 24 -49 34 -12 10 37 7 47 -14 47 -16 0 -20 -7 -20 -35 z "/><path d="M 8570 2458 c 0 -30 13 -58 26 -58 9 0 14 12 14 35 0 28 -4 35 -20 35 -11 0 -20 -6 -20 -12 z "/><path d="M 2780 2435 c 0 -22 4 -25 36 -25 44 0 42 18 -4 37 -31 13 -32 12 -32 -12 z "/><path d="M 4376 2408 c -10 -38 -7 -48 14 -48 16 0 20 7 20 35 0 40 -24 49 -34 13 z "/><path d="M 8230 2360 c 0 -44 4 -60 14 -60 16 0 26 30 26 83 0 30 -4 37 -20 37 -18 0 -20 -7 -20 -60 z "/><path d="M 7253 2343 c 11 -84 59 -243 74 -243 8 0 13 13 13 35 0 19 -4 35 -10 35 -5 0 -10 16 -10 35 0 19 -4 35 -9 35 -5 0 -12 34 -16 75 -7 66 -10 75 -28 75 -18 0 -19 -4 -14 -47 z "/><path d="M 2096 2334 c -3 -9 -6 -28 -6 -42 0 -23 11 -33 80 -69 44 -24 87 -43 95 -43 19 0 92 -36 97 -48 5 -12 234 -132 252 -132 9 0 16 -4 16 -10 0 -5 9 -10 19 -10 11 0 21 -4 23 -8 6 -17 988 -502 1015 -502 58 0 73 10 73 46 0 31 -3 34 -29 34 -20 0 -30 6 -34 20 -7 25 -1522 780 -1567 780 -16 0 -30 -7 -34 -16 z "/><path d="M 8576 2328 c -10 -38 -7 -48 14 -48 16 0 20 7 20 35 0 40 -24 49 -34 13 z "/><path d="M 3050 2315 c 0 -22 4 -25 36 -25 44 0 42 18 -4 37 -31 13 -32 12 -32 -12 z "/><path d="M 6910 2305 c 0 -28 4 -35 20 -35 21 0 24 10 14 48 -10 36 -34 27 -34 -13 z "/><path d="M 3210 2245 c 0 -22 4 -25 36 -25 44 0 42 18 -4 37 -31 13 -32 12 -32 -12 z "/><path d="M 8210 2235 c 0 -19 -4 -35 -10 -35 -5 0 -10 -16 -10 -35 0 -57 25 -43 43 25 21 76 21 80 -3 80 -16 0 -20 -7 -20 -35 z "/><path d="M 4326 2228 c -10 -38 -7 -48 14 -48 16 0 20 7 20 35 0 40 -24 49 -34 13 z "/><path d="M 6116 2185 c -9 -14 -23 -25 -31 -25 -10 0 -15 -11 -15 -35 0 -27 -4 -35 -18 -35 -42 0 -71 -61 -56 -117 16 -60 153 5 154 73 0 37 16 54 52 54 27 0 28 2 28 45 0 33 -4 45 -15 45 -8 0 -15 5 -15 10 0 6 -15 10 -34 10 -25 0 -38 -6 -50 -25 z  m 74 -25 c 9 -16 -2 -33 -67 -104 -78 -88 -104 -104 -102 -63 1 16 2 18 6 5 2 -10 8 -18 13 -18 10 0 60 58 60 71 0 18 -39 9 -54 -13 -9 -12 -16 -18 -16 -12 0 17 131 165 141 159 5 -4 13 -15 19 -25 z "/><path d="M 6145 2154 c -10 -16 -24 -33 -32 -37 -7 -4 -13 -13 -13 -18 0 -6 16 5 36 24 20 19 35 40 32 47 -2 8 -11 2 -23 -16 z "/><path d="M 3460 2135 c 0 -22 4 -25 36 -25 44 0 42 18 -4 37 -31 13 -32 12 -32 -12 z "/><path d="M 3550 2095 c 0 -22 4 -25 36 -25 44 0 42 18 -4 37 -31 13 -32 12 -32 -12 z "/><path d="M 8160 2065 c 0 -40 24 -49 34 -12 10 37 7 47 -14 47 -16 0 -20 -7 -20 -35 z "/><path d="M 8090 2064 c 0 -9 -9 -18 -20 -21 -35 -9 -24 -33 15 -33 33 0 35 2 35 35 0 24 -5 35 -15 35 -8 0 -15 -7 -15 -16 z "/><path d="M 7330 2058 c 0 -7 11 -51 25 -97 35 -118 54 -141 122 -141 36 0 43 3 43 20 0 18 -7 20 -55 20 -55 0 -55 0 -55 35 0 19 -4 35 -10 35 -5 0 -10 16 -10 35 0 19 -4 35 -10 35 -5 0 -10 16 -10 35 0 28 -4 35 -20 35 -11 0 -20 -6 -20 -12 z "/><path d="M 8114 1928 c -11 -53 -37 -68 -116 -68 -61 0 -68 -2 -68 -20 0 -18 6 -20 63 -19 104 2 119 8 145 59 27 55 28 80 3 80 -14 0 -22 -10 -27 -32 z "/><path d="M 3960 1915 c 0 -22 4 -25 36 -25 44 0 42 18 -4 37 -31 13 -32 12 -32 -12 z "/><path d="M 4100 1855 c 0 -22 4 -25 36 -25 44 0 42 18 -4 37 -31 13 -32 12 -32 -12 z "/><path d="M 8158 1662 c -37 -22 -35 -32 7 -32 31 0 35 3 35 25 0 29 -6 30 -42 7 z "/><path d="M 7400 1615 c 0 -22 4 -25 36 -25 44 0 42 18 -4 37 -31 13 -32 12 -32 -12 z "/></g><g fill="#ce653e"></g></svg>