<svg xmlns="http://www.w3.org/2000/svg" width="784px" height="784px" viewBox="0 0 10240 10240" preserveAspectRatio="xMidYMid meet"><g fill="#75492a"><path d="M 2411 6946 c -25 -26 -32 -40 -29 -65 3 -32 3 -32 68 34 64 65 64 65 29 65 -27 0 -43 -8 -68 -34 z "/><path d="M 4333 6947 c -29 -17 -53 -35 -53 -39 0 -5 16 -8 35 -8 24 0 35 5 35 15 0 9 9 15 25 15 18 0 25 -5 25 -20 0 -24 4 -25 41 -3 38 23 37 33 -6 33 -28 0 -35 4 -35 20 0 26 -5 25 -67 -13 z "/><path d="M 6728 6973 c -33 -8 -20 -33 17 -33 28 0 35 4 35 20 0 20 -14 23 -52 13 z "/><path d="M 6880 6960 c 0 -16 7 -20 35 -20 40 0 49 24 13 34 -38 10 -48 7 -48 -14 z "/><path d="M 3027 6956 c -10 -8 -80 -29 -155 -46 -142 -34 -172 -44 -172 -60 0 -17 40 -11 198 26 152 36 152 36 152 65 0 33 1 33 -23 15 z "/><path d="M 2700 6924 c 0 -39 9 -38 40 6 21 30 21 30 -9 30 -29 0 -31 -3 -31 -36 z "/><path d="M 5070 6935 c 0 -22 4 -25 35 -25 43 0 44 10 6 33 -38 22 -41 22 -41 -8 z "/><path d="M 7080 6940 c 0 -16 7 -20 35 -20 40 0 49 24 13 34 -38 10 -48 7 -48 -14 z "/><path d="M 6020 6936 c 0 -13 28 -26 58 -26 6 0 12 9 12 20 0 16 -7 20 -35 20 -23 0 -35 -5 -35 -14 z "/><path d="M 7740 6940 c 0 -6 19 -20 43 -30 42 -19 42 -19 45 2 2 11 -2 25 -10 29 -19 12 -78 11 -78 -1 z "/><path d="M 3168 6923 c -20 -3 -28 -10 -28 -24 0 -22 3 -23 70 -8 31 7 50 16 50 25 0 14 -30 16 -92 7 z "/><path d="M 6250 6916 c 0 -13 28 -26 58 -26 6 0 12 9 12 20 0 16 -7 20 -35 20 -23 0 -35 -5 -35 -14 z "/><path d="M 6670 6910 c 0 -21 16 -25 58 -14 39 11 27 34 -18 34 -33 0 -40 -3 -40 -20 z "/><path d="M 7280 6910 c 0 -16 7 -20 35 -20 40 0 49 24 13 34 -38 10 -48 7 -48 -14 z "/><path d="M 7370 6892 c 0 -20 32 -32 86 -32 13 0 24 -4 24 -10 0 -13 -4 -13 -70 5 -30 8 -81 15 -112 15 -58 0 -58 0 -58 -35 0 -31 3 -35 25 -35 20 0 25 -5 25 -25 0 -16 6 -25 15 -25 8 0 15 -9 15 -20 0 -13 7 -20 20 -20 16 0 20 -7 20 -30 0 -25 4 -30 25 -30 14 0 25 4 25 8 0 16 -99 149 -126 171 -15 11 -24 21 -20 21 17 0 254 -62 289 -75 37 -15 37 -15 37 10 0 20 5 25 26 25 52 0 17 25 -78 57 -53 17 -113 35 -132 39 -31 5 -36 4 -36 -14 z  m 137 -59 c -4 -3 -10 -3 -14 0 -3 4 0 7 7 7 7 0 10 -3 7 -7 z  m 63 -19 c 0 -2 -9 -4 -20 -4 -11 0 -20 4 -20 9 0 5 9 7 20 4 11 -3 20 -7 20 -9 z "/><path d="M 4188 6855 c -83 -55 -89 -65 -44 -65 20 0 36 5 36 10 0 6 7 10 15 10 8 0 15 5 15 10 0 6 6 10 14 10 8 0 17 6 19 13 3 6 6 0 6 -15 1 -33 4 -33 42 -11 36 21 37 33 4 33 -20 0 -25 5 -25 25 0 14 -3 25 -8 25 -4 0 -37 -20 -74 -45 z "/><path d="M 2908 6867 c -71 -17 -88 -24 -88 -39 0 -23 -1 -23 130 8 76 18 110 30 110 40 0 19 -44 16 -152 -9 z "/><path d="M 7880 6871 c 0 -4 28 -23 63 -41 128 -68 409 -249 515 -333 9 -7 12 -2 12 22 0 24 -4 31 -20 31 -11 0 -20 7 -20 15 0 8 -7 15 -15 15 -8 0 -15 5 -15 10 0 6 -9 10 -20 10 -11 0 -20 7 -20 15 0 8 -7 15 -15 15 -8 0 -15 5 -15 10 0 6 -13 10 -30 10 -23 0 -30 4 -30 20 0 11 -7 20 -15 20 -8 0 -15 5 -15 10 0 6 -11 10 -25 10 -16 0 -25 6 -25 15 0 8 -7 15 -15 15 -8 0 -15 5 -15 10 0 6 -11 10 -25 10 -16 0 -25 6 -25 15 0 9 -9 15 -25 15 -16 0 -25 6 -25 15 0 10 -11 15 -35 15 -27 0 -35 4 -35 18 0 11 -11 24 -25 30 -30 14 -85 16 -85 3 z "/><path d="M 3807 6822 c -10 -10 -17 -33 -17 -50 0 -27 -3 -31 -32 -34 -30 -3 -33 -6 -36 -40 -3 -35 -6 -38 -33 -38 -27 0 -29 -3 -29 -37 0 -32 2 -35 14 -23 31 35 182 207 195 223 12 15 11 17 -16 17 -17 0 -37 -8 -46 -18 z "/><path d="M 3708 6823 c -33 -8 -20 -33 17 -33 28 0 35 4 35 20 0 20 -14 23 -52 13 z "/><path d="M 2282 6808 c -7 -7 -12 -27 -12 -45 0 -27 4 -34 28 -39 41 -9 49 -12 30 -13 -12 -1 -18 -9 -18 -25 0 -25 0 -25 68 -2 37 13 91 29 120 35 35 9 52 18 52 28 0 13 -9 15 -52 10 -28 -4 -54 -11 -57 -15 -3 -5 -23 -11 -43 -14 -34 -4 -38 -2 -38 19 0 23 -1 23 -37 8 -37 -16 -37 -16 -17 7 48 55 49 58 17 58 -16 0 -34 -5 -41 -12 z "/><path d="M 2436 6797 c -107 -39 -71 -65 41 -30 38 12 53 22 53 35 0 23 -20 22 -94 -5 z "/><path d="M 2653 6802 c -49 -12 -63 -20 -63 -34 0 -23 3 -23 105 3 55 14 85 26 85 35 0 18 -46 17 -127 -4 z "/><path d="M 5200 6812 c 0 -8 52 -42 64 -42 3 0 6 11 6 25 0 22 -4 25 -35 25 -19 0 -35 -4 -35 -8 z "/><path d="M 5830 6795 c 0 -22 4 -25 35 -25 43 0 44 10 6 33 -38 22 -41 22 -41 -8 z "/><path d="M 3538 6803 c -33 -8 -20 -33 17 -33 28 0 35 4 35 20 0 20 -14 23 -52 13 z "/><path d="M 5730 6792 c 0 -8 160 -102 173 -102 4 0 7 11 7 23 0 27 -34 47 -80 47 -23 0 -30 5 -30 20 0 16 -7 20 -35 20 -19 0 -35 -4 -35 -8 z "/><path d="M 3408 6783 c -33 -8 -20 -33 17 -33 28 0 35 4 35 20 0 20 -14 23 -52 13 z "/><path d="M 6780 6768 c 0 -30 13 -58 26 -58 9 0 14 12 14 35 0 28 -4 35 -20 35 -11 0 -20 -6 -20 -12 z "/><path d="M 3258 6753 c -63 -17 -80 -43 -28 -43 23 0 30 -4 30 -20 0 -11 6 -20 13 -20 57 1 80 39 25 41 -32 1 -31 2 10 12 31 7 42 15 42 28 0 22 -14 23 -92 2 z "/><path d="M 3473 6748 c -110 -18 -123 -23 -123 -40 0 -18 4 -20 33 -14 74 15 280 47 283 44 2 -2 -22 -35 -52 -73 -31 -39 -65 -82 -76 -97 -19 -28 -19 -28 11 -28 24 0 31 4 31 20 0 11 7 20 15 20 9 0 15 9 15 25 0 18 5 25 20 25 15 0 20 7 20 25 0 18 5 25 20 25 16 0 20 7 20 35 0 24 -5 35 -15 35 -8 0 -15 5 -15 10 0 14 -46 11 -187 -12 z "/><path d="M 5320 6742 c 0 -8 52 -42 64 -42 3 0 6 11 6 25 0 22 -4 25 -35 25 -19 0 -35 -4 -35 -8 z "/><path d="M 7461 6691 c 34 -31 55 -44 57 -36 2 8 17 15 35 17 31 3 31 3 -12 37 -31 25 -45 31 -51 22 -5 -10 -16 -10 -45 -2 -38 10 -38 10 16 -38 z "/><path d="M 3113 6700 c -66 -33 -79 -49 -40 -51 12 0 16 -3 10 -6 -7 -2 -13 -18 -13 -34 0 -29 0 -29 45 -1 49 29 56 42 25 42 -11 0 -20 7 -20 15 0 10 10 15 30 15 23 0 30 -5 30 -19 0 -17 3 -18 35 -8 46 14 46 37 1 37 -27 0 -35 4 -38 21 -3 19 -5 19 -65 -11 z "/><path d="M 2858 6703 c -10 -2 -18 -11 -18 -19 0 -11 15 -14 60 -14 53 0 60 2 60 20 0 17 -6 20 -42 19 -24 -1 -51 -3 -60 -6 z "/><path d="M 2635 6669 c -88 -16 -218 -39 -290 -52 -129 -24 -129 -24 -95 4 19 16 38 29 42 29 4 0 8 5 8 10 0 6 -16 10 -35 10 -28 0 -35 -4 -35 -20 0 -11 -7 -20 -15 -20 -10 0 -15 -11 -15 -35 0 -33 2 -35 33 -36 26 -1 22 -4 -20 -12 -42 -8 -53 -14 -53 -29 0 -18 5 -19 43 -13 23 4 68 13 100 21 74 19 93 14 41 -11 -49 -23 -289 -179 -298 -194 -5 -7 5 -11 28 -11 20 0 36 5 36 10 0 6 7 10 15 10 8 0 15 5 15 10 0 6 7 10 15 10 8 0 15 5 15 10 0 6 7 10 15 10 8 0 15 -9 15 -20 0 -27 13 -25 47 5 28 24 28 24 -12 26 -22 1 -32 3 -22 6 9 2 17 9 17 14 0 5 7 9 15 9 8 0 15 7 15 15 0 8 7 15 15 15 9 0 15 -9 15 -25 0 -14 2 -25 5 -25 12 0 155 85 155 92 0 4 -12 8 -27 9 -16 0 -22 3 -15 6 6 2 12 22 12 43 0 35 -3 39 -27 42 -16 2 59 18 166 36 107 17 196 31 198 29 1 -2 -33 -14 -77 -26 -69 -20 -80 -27 -80 -46 0 -22 0 -22 115 14 113 35 142 56 88 64 -28 4 -28 4 0 6 20 1 27 6 27 21 0 25 5 25 -195 -11 z  m -288 -95 c -3 -3 -12 -4 -19 -1 -8 3 -5 6 6 6 11 1 17 -2 13 -5 z  m -50 -10 c -3 -3 -12 -4 -19 -1 -8 3 -5 6 6 6 11 1 17 -2 13 -5 z  m 80 -81 c -4 -3 -10 -3 -14 0 -3 4 0 7 7 7 7 0 10 -3 7 -7 z  m -17 -28 c 0 -9 -9 -15 -25 -15 -29 0 -34 16 -7 23 30 8 32 7 32 -8 z "/><path d="M 7780 6691 c 0 -5 45 -33 101 -62 74 -39 114 -68 151 -108 62 -67 135 -171 191 -268 22 -40 45 -73 49 -73 9 0 11 51 2 74 -3 9 -12 16 -20 16 -8 0 -14 10 -14 25 0 16 -6 25 -15 25 -9 0 -15 9 -15 25 0 14 -4 25 -10 25 -5 0 -10 7 -10 15 0 9 -9 15 -25 15 -22 0 -25 4 -25 35 0 28 -4 35 -20 35 -15 0 -20 7 -20 25 0 20 -5 25 -25 25 -21 0 -25 5 -25 30 0 28 -3 30 -35 30 -31 0 -35 3 -35 25 0 20 -5 25 -25 25 -14 0 -25 6 -25 13 0 7 -20 23 -45 35 -46 22 -105 30 -105 13 z "/><path d="M 6192 6665 c -10 -12 -10 -15 1 -15 8 0 29 -3 46 -6 27 -6 31 -4 31 15 0 17 -6 21 -32 21 -18 -1 -39 -7 -46 -15 z "/><path d="M 6813 6628 c 19 -46 37 -48 37 -4 0 32 -3 36 -25 36 -24 0 -25 -1 -12 -32 z "/><path d="M 7590 6646 c 0 -11 -10 -16 -32 -16 -33 -1 -33 -1 2 -31 27 -23 36 -26 38 -14 2 9 15 15 33 15 34 0 31 10 -11 40 -25 18 -30 19 -30 6 z "/><path d="M 6340 6636 c 0 -13 28 -26 58 -26 6 0 12 9 12 20 0 16 -7 20 -35 20 -23 0 -35 -5 -35 -14 z "/><path d="M 2957 6588 c -47 -48 -50 -53 -29 -56 18 -3 22 -10 22 -38 0 -43 9 -43 38 1 21 33 21 35 3 35 -14 0 -17 6 -13 25 3 16 11 25 23 25 14 0 19 7 19 30 0 17 -2 30 -5 30 -3 0 -29 -24 -58 -52 z "/><path d="M 5500 6622 c 0 -10 8 -18 18 -18 9 -1 25 -4 35 -9 14 -6 17 -2 17 19 0 23 -4 26 -35 26 -27 0 -35 -4 -35 -18 z "/><path d="M 6150 6615 c 0 -22 4 -25 35 -25 43 0 44 10 6 33 -38 22 -41 22 -41 -8 z "/><path d="M 6600 6610 c 0 -16 7 -20 35 -20 40 0 49 24 13 34 -38 10 -48 7 -48 -14 z "/><path d="M 2795 6590 c -10 -12 -73 -47 -140 -80 -67 -33 -130 -68 -140 -80 -18 -20 -18 -20 18 -20 26 0 37 4 37 15 0 8 9 15 19 15 30 0 51 11 51 26 0 8 10 14 24 14 13 0 46 10 75 21 42 18 51 26 51 46 0 16 7 27 20 30 11 3 20 12 20 19 0 20 -14 17 -35 -6 z "/><path d="M 2850 6575 c 0 -44 9 -44 38 0 22 35 22 35 -8 35 -28 0 -30 -3 -30 -35 z "/><path d="M 6070 6602 c 0 -8 52 -42 64 -42 3 0 6 11 6 25 0 22 -4 25 -35 25 -19 0 -35 -4 -35 -8 z "/><path d="M 6520 6586 c 0 -13 28 -26 58 -26 6 0 12 9 12 20 0 16 -7 20 -35 20 -23 0 -35 -5 -35 -14 z "/><path d="M 5118 6583 c -33 -8 -20 -33 17 -33 28 0 35 4 35 20 0 20 -14 23 -52 13 z "/><path d="M 5590 6582 c 0 -8 52 -42 64 -42 3 0 6 11 6 25 0 22 -4 25 -35 25 -19 0 -35 -4 -35 -8 z "/><path d="M 8120 6565 c 0 -22 4 -25 35 -25 43 0 44 10 6 33 -38 22 -41 22 -41 -8 z "/><path d="M 5250 6560 c 0 -21 10 -24 48 -14 36 10 27 34 -13 34 -28 0 -35 -4 -35 -20 z "/><path d="M 6260 6555 c 0 -18 -5 -25 -20 -25 -28 0 -25 -13 9 -33 38 -22 41 -22 41 8 0 18 5 25 20 25 28 0 25 13 -9 33 -38 22 -41 22 -41 -8 z "/><path d="M 5680 6532 c 0 -8 52 -42 64 -42 3 0 6 11 6 25 0 22 -4 25 -35 25 -19 0 -35 -4 -35 -8 z "/><path d="M 3478 6490 c -28 -35 -28 -35 2 -38 25 -3 30 -8 30 -30 1 -27 1 -27 31 8 30 35 30 35 0 38 -24 3 -30 8 -33 30 -3 27 -3 27 -30 -8 z "/><path d="M 4828 6503 c -33 -8 -20 -33 17 -33 28 0 35 4 35 20 0 20 -14 23 -52 13 z "/><path d="M 5270 6490 c 0 -16 7 -20 35 -20 40 0 49 24 13 34 -38 10 -48 7 -48 -14 z "/><path d="M 6430 6465 c 0 -22 4 -25 35 -25 43 0 44 10 6 33 -38 22 -41 22 -41 -8 z "/><path d="M 6852 6478 c 3 -7 19 -18 36 -25 31 -13 32 -12 32 12 0 22 -4 25 -36 25 -23 0 -34 -4 -32 -12 z "/><path d="M 8290 6461 c 0 -29 3 -31 36 -31 39 0 38 9 -6 40 -30 21 -30 21 -30 -9 z "/><path d="M 8480 6486 c 0 -3 138 -115 208 -169 9 -7 12 -2 12 22 0 26 -4 31 -25 31 -18 0 -25 5 -25 20 0 15 -7 20 -25 20 -18 0 -25 5 -25 20 0 15 -7 20 -25 20 -18 0 -25 5 -25 20 0 16 -7 20 -35 20 -19 0 -35 -2 -35 -4 z "/><path d="M 5670 6450 c 0 -16 7 -20 35 -20 40 0 49 24 13 34 -38 10 -48 7 -48 -14 z "/><path d="M 7720 6440 c 31 -44 40 -45 40 -6 0 33 -2 36 -31 36 -30 0 -30 0 -9 -30 z "/><path d="M 2020 6429 c 0 -30 0 -30 30 -9 44 31 45 40 6 40 -33 0 -36 -2 -36 -31 z "/><path d="M 4518 6443 c -33 -8 -20 -33 17 -33 28 0 35 4 35 20 0 20 -14 23 -52 13 z "/><path d="M 3396 6384 c -22 -27 -44 -55 -49 -61 -7 -10 -2 -13 22 -13 26 0 31 4 31 25 0 14 5 25 10 25 6 0 10 -13 10 -30 0 -25 -4 -30 -25 -30 -22 0 -25 -4 -25 -35 0 -32 -2 -35 -30 -35 -28 0 -30 -3 -30 -37 0 -44 -5 -48 100 77 61 72 68 85 51 88 -15 2 -21 12 -23 39 -3 36 -3 36 -42 -13 z "/><path d="M 6540 6405 c 0 -22 4 -25 35 -25 43 0 44 10 6 33 -38 22 -41 22 -41 -8 z "/><path d="M 1950 6375 c 0 -8 -4 -15 -10 -15 -5 0 -10 -7 -10 -15 0 -8 -4 -15 -10 -15 -5 0 -10 -7 -10 -15 0 -8 -4 -15 -10 -15 -5 0 -10 -16 -10 -35 0 -19 3 -35 8 -35 4 0 31 36 60 80 52 80 52 80 22 80 -20 0 -30 -5 -30 -15 z "/><path d="M 3648 6350 c -28 -35 -28 -35 -2 -38 33 -4 36 -1 32 39 -3 34 -3 34 -30 -1 z "/><path d="M 4370 6349 c 0 -16 -4 -20 -17 -14 -45 17 -80 15 -212 -10 -122 -24 -141 -30 -141 -46 0 -23 -8 -24 130 5 193 40 178 39 185 6 6 -27 11 -30 46 -30 37 0 38 1 29 26 -14 36 -13 41 11 47 17 4 24 -2 39 -38 13 -30 35 -55 76 -84 31 -22 61 -41 66 -41 4 0 8 11 8 25 0 16 -6 25 -15 25 -8 0 -15 5 -15 10 0 6 -9 10 -20 10 -11 0 -20 7 -20 15 0 8 -7 15 -15 15 -8 0 -15 7 -15 15 0 8 -7 15 -15 15 -10 0 -15 11 -15 35 0 35 0 35 -45 35 -39 0 -45 -3 -45 -21 z "/><path d="M 7070 6351 c 0 -5 19 -18 43 -30 42 -21 42 -21 45 0 2 12 -2 26 -10 30 -17 12 -78 11 -78 0 z "/><path d="M 7819 6333 c 11 -16 36 -46 55 -68 35 -40 35 -40 36 -2 0 33 -3 37 -25 37 -21 0 -25 5 -25 30 0 27 -3 30 -31 30 -30 0 -30 0 -10 -27 z "/><path d="M 3958 6343 c -33 -8 -20 -33 17 -33 28 0 35 4 35 20 0 20 -14 23 -52 13 z "/><path d="M 6270 6314 c 0 -21 5 -24 35 -24 22 0 35 5 35 13 0 8 -16 18 -35 24 -33 11 -35 10 -35 -13 z "/><path d="M 8510 6301 c 0 -29 3 -31 36 -31 39 0 38 9 -6 40 -30 21 -30 21 -30 -9 z "/><path d="M 6858 6299 c -29 -16 -21 -29 17 -29 28 0 35 4 35 20 0 22 -24 26 -52 9 z "/><path d="M 7930 6276 c 0 -33 2 -36 31 -36 30 0 30 0 9 30 -31 44 -40 45 -40 6 z "/><path d="M 1960 6264 c -45 -36 -45 -36 0 -29 54 9 52 7 48 39 -3 26 -3 26 -48 -10 z "/><path d="M 3588 6270 c -28 -35 -28 -35 -2 -38 33 -4 36 -1 32 39 -3 34 -3 34 -30 -1 z "/><path d="M 7212 6288 c 5 -14 82 -42 147 -53 37 -6 41 -5 41 14 0 17 -9 21 -60 27 -33 4 -60 11 -60 15 0 5 -16 9 -36 9 -24 0 -34 -4 -32 -12 z "/><path d="M 8370 6270 c 31 -44 40 -45 40 -6 0 33 -2 36 -31 36 -30 0 -30 0 -9 -30 z "/><path d="M 2050 6249 c 0 -30 0 -30 30 -9 44 31 45 40 6 40 -33 0 -36 -2 -36 -31 z "/><path d="M 3910 6255 c 0 -10 -11 -15 -35 -15 -31 0 -35 -3 -35 -25 0 -14 2 -25 4 -25 15 0 136 62 136 70 0 6 -16 10 -35 10 -24 0 -35 -5 -35 -15 z "/><path d="M 8733 6258 c 2 -56 -27 -71 -73 -38 -30 21 -30 21 -30 -8 0 -26 4 -30 38 -36 60 -10 82 -7 82 9 0 8 5 15 10 15 6 0 10 16 10 35 0 28 -4 35 -19 35 -10 0 -19 -6 -18 -12 z "/><path d="M 8300 6225 c 0 -31 3 -35 25 -35 30 0 30 3 8 41 -23 38 -33 37 -33 -6 z "/><path d="M 7532 6238 c 3 -7 19 -18 36 -25 31 -13 32 -12 32 12 0 22 -4 25 -36 25 -23 0 -34 -4 -32 -12 z "/><path d="M 4350 6223 c 8 -10 21 -24 29 -31 14 -11 14 -14 1 -22 -12 -8 -10 -10 8 -10 21 0 23 4 20 38 -3 34 -6 37 -37 40 -32 3 -34 2 -21 -15 z "/><path d="M 2307 6201 c -22 -38 -22 -41 8 -41 22 0 25 4 25 35 0 43 -10 44 -33 6 z "/><path d="M 7040 6195 c 0 -28 4 -35 20 -35 21 0 24 10 14 48 -10 36 -34 27 -34 -13 z "/><path d="M 4420 6191 c 0 -29 3 -31 36 -31 39 0 38 9 -6 40 -30 21 -30 21 -30 -9 z "/><path d="M 7930 6190 c 31 -44 40 -45 40 -6 0 33 -2 36 -31 36 -30 0 -30 0 -9 -30 z "/><path d="M 8000 6186 c 0 -20 5 -36 10 -36 6 0 10 -7 10 -15 0 -8 5 -15 10 -15 6 0 10 -7 10 -15 0 -9 9 -15 25 -15 14 0 25 3 25 7 0 10 -60 100 -76 113 -12 11 -14 7 -14 -24 z "/><path d="M 3743 6183 c -13 -5 -19 -53 -7 -53 13 0 84 44 84 52 0 9 -57 10 -77 1 z "/><path d="M 8450 6164 c 0 -12 34 -64 42 -64 4 0 8 16 8 35 0 31 -3 35 -25 35 -14 0 -25 -3 -25 -6 z "/><path d="M 1890 6140 c 0 -15 -7 -20 -25 -20 -20 0 -25 -5 -25 -24 0 -21 -6 -25 -32 -28 -29 -3 -33 -7 -36 -35 -3 -30 -6 -33 -38 -33 -30 0 -34 -3 -34 -25 0 -21 -5 -25 -30 -25 -27 0 -30 -3 -30 -31 0 -37 -16 -47 154 96 195 164 177 144 134 145 -31 0 -38 -3 -38 -20 z "/><path d="M 4620 6152 c 0 -5 39 -30 87 -57 87 -49 87 -49 57 -62 -16 -6 -35 -12 -41 -13 -7 0 -13 -7 -13 -15 0 -10 11 -15 35 -15 24 0 35 5 35 15 0 8 9 15 20 15 16 0 20 7 20 35 0 31 -3 36 -30 42 -16 3 -30 9 -30 14 0 5 -11 9 -25 9 -15 0 -25 6 -25 14 0 8 -7 17 -16 20 -23 9 -74 7 -74 -2 z "/><path d="M 3445 6101 c -49 -51 -49 -51 -14 -51 46 0 72 27 67 70 -3 31 -3 31 -53 -19 z "/><path d="M 7140 6120 c 0 -16 7 -20 35 -20 39 0 46 14 16 30 -31 16 -51 12 -51 -10 z "/><path d="M 3640 6110 c 0 -16 -7 -20 -35 -20 -24 0 -35 -5 -35 -15 0 -9 -9 -15 -25 -15 -16 0 -25 -6 -25 -15 0 -9 -9 -15 -25 -15 -16 0 -25 -6 -25 -15 0 -9 -9 -15 -25 -15 -14 0 -25 -4 -25 -10 0 -5 -7 -10 -15 -10 -9 0 -15 -9 -15 -25 0 -16 -6 -25 -15 -25 -10 0 -15 -11 -15 -35 0 -35 0 -35 45 -35 60 0 62 25 3 37 -43 9 -43 9 13 45 30 19 108 66 172 104 64 38 117 72 117 77 0 4 -16 7 -35 7 -28 0 -35 -4 -35 -20 z "/></g></svg>