<svg xmlns="http://www.w3.org/2000/svg" width="784px" height="784px" viewBox="0 0 10240 10240" preserveAspectRatio="xMidYMid meet"><g fill="#060302"><path d="M 5057 6050 c -49 -9 -71 -20 -160 -83 -133 -94 -439 -189 -737 -229 -206 -27 -604 -14 -965 33 -174 22 -236 24 -253 7 -9 -9 -12 -145 -12 -550 0 -538 0 -538 25 -538 25 0 25 0 25 520 0 597 -22 532 171 506 397 -55 844 -67 1095 -28 163 25 359 77 488 129 83 33 121 52 234 120 23 14 53 23 80 23 39 0 42 -2 32 -20 -19 -35 -107 -116 -190 -175 -202 -142 -464 -233 -795 -276 -101 -13 -473 -18 -702 -9 -179 7 -163 48 -163 -412 0 -378 0 -378 30 -378 30 0 30 0 30 365 0 365 0 365 298 358 326 -6 454 2 682 43 343 62 649 210 809 392 51 57 51 57 51 -550 0 -608 0 -608 30 -608 30 0 30 0 30 603 1 602 1 602 28 567 94 -122 276 -287 507 -460 166 -123 298 -253 343 -338 30 -57 78 -232 64 -232 -4 0 -34 32 -67 71 -87 102 -187 188 -389 338 -99 74 -226 179 -283 234 -103 100 -103 100 -103 -74 0 -96 -1 -294 -3 -442 -1 -208 1 -267 11 -267 8 0 12 16 12 45 0 65 28 89 96 81 39 -4 55 -2 64 9 20 24 30 17 30 -20 0 -28 9 -45 38 -77 21 -22 45 -39 52 -36 10 3 1 18 -27 49 -37 40 -42 51 -45 99 -3 55 -3 55 -31 26 -25 -27 -33 -29 -86 -27 -34 1 -62 -3 -66 -9 -3 -6 -11 -8 -16 -5 -11 7 -12 675 -1 675 4 0 28 -20 52 -45 25 -25 97 -87 161 -137 115 -92 116 -92 127 -148 24 -112 7 -187 -49 -215 -35 -19 -61 -19 -104 -1 -32 14 -43 29 -59 78 -7 24 -36 11 -36 -16 0 -23 38 -65 77 -85 12 -6 45 -11 74 -11 46 0 55 4 89 38 30 30 39 47 45 89 8 58 -1 130 -19 153 -6 8 4 4 22 -9 32 -22 32 -22 32 -262 0 -153 4 -239 10 -239 6 0 10 71 10 193 0 105 3 209 6 229 6 33 9 36 25 27 18 -9 19 -25 19 -229 0 -140 4 -220 10 -220 6 0 10 72 10 195 0 107 4 195 8 195 11 0 47 -39 59 -65 6 -11 14 -38 18 -60 3 -22 16 -67 27 -99 19 -60 19 -60 -1 -75 -26 -21 -57 -91 -39 -91 7 0 20 15 28 33 23 50 76 45 137 -12 17 -17 35 -21 83 -21 60 0 60 0 60 53 0 28 -5 81 -10 116 -6 35 -9 65 -7 68 5 4 69 -95 116 -179 30 -53 35 -58 68 -58 35 0 35 0 -3 68 -59 107 -121 199 -207 311 -53 69 -74 102 -61 99 75 -21 216 -60 252 -68 42 -11 42 -11 42 -66 0 -165 188 -283 433 -272 97 5 97 5 97 -34 0 -27 4 -38 15 -38 23 0 22 365 -1 374 -9 3 -57 6 -108 6 -182 0 -432 41 -658 107 -130 38 -130 38 -211 112 -45 40 -131 110 -190 155 -60 44 -104 82 -98 84 5 2 36 -10 68 -26 91 -46 325 -130 437 -157 123 -30 124 -30 100 -4 -23 26 -71 50 -144 74 -334 109 -604 240 -750 366 -66 56 -140 146 -140 168 0 6 16 11 37 11 27 0 59 -13 118 -49 132 -81 297 -142 520 -192 79 -18 246 -48 268 -49 9 0 9 41 -1 56 -4 7 -56 19 -117 29 -281 43 -558 140 -670 234 -27 23 -66 46 -85 51 -53 14 -199 20 -253 10 z  m 1503 -984 c 63 -8 170 -18 238 -22 122 -7 122 -7 122 -125 0 -119 0 -119 -27 -126 -16 -5 -66 -7 -113 -7 -137 2 -274 58 -330 136 -42 58 -53 158 -18 158 7 0 65 -7 128 -14 z  m -451 -280 c 31 -50 28 -66 -14 -66 -32 0 -35 2 -35 31 0 27 15 69 25 69 2 0 13 -15 24 -34 z "/><path d="M 7292 5758 c 2 -25 9 -34 28 -38 25 -6 25 -6 21 -518 -3 -512 -3 -512 28 -512 31 0 31 0 31 534 0 598 4 566 -71 566 -39 0 -40 -1 -37 -32 z "/><path d="M 4936 5535 c -142 -98 -348 -191 -521 -235 -70 -18 -70 -18 -73 -314 -2 -259 0 -296 13 -296 13 0 15 37 15 288 0 287 0 287 48 299 41 10 48 9 57 -5 6 -9 26 -33 45 -53 35 -36 35 -37 32 -115 -3 -70 -1 -83 20 -114 31 -46 74 -58 131 -36 32 12 49 27 67 58 21 37 22 49 17 128 -6 80 -5 91 23 156 16 39 32 89 36 111 6 37 13 46 74 87 37 25 70 46 73 46 4 0 7 -134 7 -299 0 -298 0 -298 -87 -304 -77 -5 -91 -3 -115 14 -41 29 -51 25 -43 -20 6 -39 6 -40 -53 -80 -62 -42 -103 -84 -128 -132 -25 -49 7 -34 41 19 20 30 56 64 98 92 56 37 67 49 67 72 0 32 6 34 31 12 14 -13 23 -13 56 -4 21 6 58 10 83 8 45 -3 45 -3 48 -102 2 -64 -1 -103 -9 -112 -9 -11 -7 -14 10 -14 21 0 21 0 21 450 0 248 -1 450 -2 450 -2 0 -39 -25 -82 -55 z  m -112 -127 c -14 -49 -32 -84 -48 -97 -21 -18 -24 -15 -27 37 -3 38 0 45 26 62 42 26 58 25 49 -2 z  m -116 -90 c -2 -44 -6 -53 -23 -56 -11 -2 -30 -13 -42 -25 -13 -11 -25 -18 -27 -16 -3 2 -8 27 -11 55 -7 51 -7 51 41 72 27 12 53 21 57 22 4 0 7 -24 5 -52 z  m -148 -49 c 0 -58 -10 -60 -47 -12 -24 32 -24 32 4 47 41 22 43 21 43 -35 z  m 167 -71 c 39 -36 24 -129 -28 -172 -43 -37 -61 -33 -81 17 -27 65 -24 113 11 148 35 35 66 37 98 7 z "/><path d="M 7126 5299 c -26 -20 -26 -20 -26 -315 0 -294 0 -294 30 -294 30 0 30 0 30 293 0 160 3 302 6 315 8 28 -6 28 -40 1 z "/><path d="M 4200 5255 c -114 -23 -309 -37 -532 -37 -218 0 -218 0 -218 -264 0 -264 0 -264 45 -264 39 0 45 3 45 20 0 37 29 78 63 91 24 8 41 25 57 56 45 86 170 173 226 159 76 -19 154 -158 154 -273 0 -53 0 -53 60 -53 60 0 60 0 53 33 -3 17 -11 43 -16 57 -11 25 -11 25 -15 0 -6 -37 -19 -46 -27 -19 -4 13 -13 31 -20 39 -8 8 -24 42 -36 75 -16 43 -37 75 -76 112 -56 55 -61 63 -39 63 19 0 105 95 117 128 9 27 15 29 101 41 51 7 98 15 105 18 10 4 13 -50 13 -271 0 -239 2 -276 15 -276 13 0 15 39 15 290 0 226 -3 290 -12 289 -7 -1 -42 -7 -78 -14 z  m -185 -56 c 9 -14 -38 -82 -77 -112 -32 -23 -117 -57 -145 -57 -23 0 -14 50 17 106 30 52 31 53 88 59 52 6 85 10 104 14 4 0 10 -4 13 -10 z  m -355 -19 c 0 -10 -128 -123 -158 -139 -11 -6 -22 -7 -26 -4 -3 3 -6 39 -6 80 0 73 0 73 95 73 54 0 95 -4 95 -10 z  m 150 1 c 0 -5 -21 -32 -46 -60 -44 -49 -215 -171 -239 -171 -6 0 -22 11 -34 24 -23 24 -23 24 40 66 34 24 85 66 113 95 49 50 53 52 109 53 31 1 57 -2 57 -7 z  m -56 -138 c -5 -36 -15 -57 -41 -83 -19 -19 -46 -54 -60 -77 -28 -48 -43 -55 -43 -20 0 13 -11 34 -25 47 -14 13 -25 26 -25 29 0 3 21 18 48 33 26 15 70 47 97 72 28 25 51 45 53 46 2 0 0 -21 -4 -47 z  m -244 -108 c 41 -21 41 -69 -1 -141 -17 -30 -32 -54 -35 -54 -2 0 -4 47 -4 105 0 58 2 105 5 105 4 0 19 -7 35 -15 z "/><path d="M 5443 5236 c -55 -46 -70 -151 -26 -167 21 -8 23 -5 29 31 6 37 47 90 60 78 3 -4 -2 -20 -10 -37 -25 -47 -20 -88 13 -122 55 -55 127 -30 138 48 11 83 -22 133 -87 133 -40 0 -70 20 -70 46 0 20 -15 17 -47 -10 z "/><path d="M 2006 4913 c -19 -27 -56 -87 -81 -135 -46 -88 -46 -88 -1 -88 38 0 46 3 46 18 0 10 20 56 44 103 52 99 66 149 42 149 -9 0 -31 -21 -50 -47 z "/><path d="M 3661 4750 c -1 -8 -4 -25 -7 -37 -5 -17 -2 -23 10 -23 17 0 20 23 6 55 -6 13 -9 15 -9 5 z "/><path d="M 3936 4705 c 4 -8 13 -15 21 -15 13 0 13 3 3 15 -7 8 -16 15 -21 15 -5 0 -6 -7 -3 -15 z "/></g></svg>