<svg xmlns="http://www.w3.org/2000/svg" width="784px" height="784px" viewBox="0 0 10240 10240" preserveAspectRatio="xMidYMid meet"><g fill="#88512e"><path d="M 4233 6343 c -25 -3 -33 -9 -33 -24 0 -17 5 -19 54 -13 52 6 53 6 60 -22 4 -15 21 -46 39 -67 28 -36 29 -41 14 -52 -25 -18 -21 -25 18 -25 32 0 35 2 35 30 0 17 5 30 10 30 6 0 0 16 -12 35 -23 34 -38 45 -38 25 0 -5 -4 -10 -8 -10 -5 0 -14 23 -21 50 -13 49 -14 50 -49 48 -21 0 -52 -3 -69 -5 z "/><path d="M 8625 6320 c 3 -5 8 -10 11 -10 3 0 2 5 -1 10 -3 6 -8 10 -11 10 -3 0 -2 -4 1 -10 z "/><path d="M 3940 6270 c 0 -5 -11 -10 -25 -10 -20 0 -25 -5 -25 -25 0 -25 0 -25 52 -4 63 25 68 28 68 40 0 5 -16 9 -35 9 -19 0 -35 -4 -35 -10 z "/><path d="M 2164 6248 c -4 -7 -3 -8 4 -4 12 7 16 16 8 16 -3 0 -8 -5 -12 -12 z "/><path d="M 8115 6216 c 10 -14 19 -26 22 -26 7 0 -17 39 -28 46 -6 3 -3 -5 6 -20 z "/><path d="M 3770 6175 c 0 -30 3 -30 41 -8 38 23 37 33 -6 33 -31 0 -35 -3 -35 -25 z "/><path d="M 4550 6192 c 0 -7 102 -72 114 -72 3 0 6 11 6 25 0 20 -5 25 -25 25 -16 0 -25 6 -25 15 0 10 -11 15 -35 15 -19 0 -35 -3 -35 -8 z "/><path d="M 8030 6167 c 0 -16 11 -43 24 -60 14 -18 33 -51 43 -73 20 -45 45 -74 64 -74 8 0 7 6 -4 18 -10 10 -17 22 -17 26 0 3 -18 39 -40 78 -46 81 -47 105 -1 32 17 -27 34 -53 38 -59 4 -5 8 -17 8 -25 0 -8 9 -16 20 -19 11 -2 23 -8 27 -15 6 -8 8 -8 8 1 0 6 -4 14 -9 17 -5 3 -7 14 -4 25 3 13 -13 33 -57 72 -34 30 -66 54 -72 54 -5 0 -13 7 -18 15 -8 12 -10 8 -10 -13 z "/><path d="M 3660 6120 c 0 -16 -7 -20 -35 -20 -31 0 -35 -3 -35 -25 0 -14 2 -25 5 -25 12 0 135 75 135 82 0 4 -16 8 -35 8 -28 0 -35 -4 -35 -20 z "/><path d="M 4320 6095 c 0 -30 3 -30 41 -8 38 23 37 33 -6 33 -31 0 -35 -3 -35 -25 z "/><path d="M 4198 6078 c -44 -25 -48 -38 -13 -38 16 0 25 -6 25 -15 0 -19 5 -19 41 2 32 19 38 33 14 33 -8 0 -15 9 -15 20 0 25 -6 25 -52 -2 z "/><path d="M 3490 6025 c 0 -9 -9 -15 -25 -15 -20 0 -25 -5 -25 -25 0 -14 3 -25 6 -25 12 0 114 65 114 72 0 5 -16 8 -35 8 -24 0 -35 -5 -35 -15 z "/><path d="M 4073 5983 c -7 -2 -13 -13 -13 -24 0 -14 -7 -19 -30 -19 -20 0 -30 5 -30 15 0 8 -3 15 -7 15 -13 0 -153 -84 -153 -92 0 -4 16 -8 35 -8 24 0 35 5 35 15 0 8 9 15 21 15 11 0 29 5 40 10 16 9 19 7 19 -15 0 -22 4 -25 35 -25 41 0 47 17 8 22 -23 3 -18 8 45 42 40 22 72 43 72 48 0 9 -57 10 -77 1 z "/><path d="M 3360 5925 c 0 -24 5 -35 15 -35 8 0 15 -7 15 -15 0 -10 11 -15 35 -15 49 0 47 27 -2 35 -21 4 -42 8 -48 9 -5 1 5 11 23 21 41 25 41 35 -3 35 -33 0 -35 -2 -35 -35 z "/><path d="M 1790 5943 c -19 -7 -84 -75 -88 -94 -2 -7 9 0 25 16 16 17 44 42 63 57 33 26 33 33 0 21 z "/><path d="M 4428 5943 c -33 -8 -20 -33 17 -33 28 0 35 4 35 20 0 20 -14 23 -52 13 z "/><path d="M 4318 5923 c -33 -8 -20 -33 17 -33 28 0 35 4 35 20 0 20 -14 23 -52 13 z "/><path d="M 4188 5903 c -33 -8 -20 -33 17 -33 28 0 35 4 35 20 0 20 -14 23 -52 13 z "/><path d="M 4088 5893 c -33 -8 -20 -33 17 -33 28 0 35 4 35 20 0 20 -14 23 -52 13 z "/><path d="M 3550 5870 c 0 -17 7 -20 40 -20 45 0 57 23 18 34 -42 11 -58 7 -58 -14 z "/><path d="M 1525 5821 c -35 -22 -65 -56 -65 -74 0 -9 12 -13 35 -12 20 0 37 -5 40 -13 3 -8 0 -10 -8 -6 -6 4 -9 4 -5 -1 9 -10 -10 -35 -25 -35 -7 0 -7 4 1 12 7 7 12 17 12 22 0 6 -16 -7 -35 -27 -19 -20 -35 -34 -35 -30 0 5 -5 0 -11 -9 -5 -10 -17 -15 -27 -12 -12 4 -13 3 -4 -3 10 -8 10 -12 -3 -23 -8 -7 -15 -16 -15 -21 0 -21 28 -4 109 69 47 42 105 93 129 112 42 35 42 35 0 34 -49 -1 -92 -20 -82 -36 4 -6 3 -8 -4 -4 -6 3 -15 -2 -21 -11 -5 -10 -12 -15 -16 -12 -3 4 17 27 46 53 37 33 46 46 33 46 -11 0 -32 -9 -49 -19 z "/><path d="M 1418 5695 c -15 -14 -34 -25 -43 -25 -8 0 -15 -9 -15 -20 0 -11 1 -20 3 -20 2 0 23 20 47 45 47 48 52 61 8 20 z "/><path d="M 1188 5519 c -39 -35 -68 -69 -68 -80 0 -28 9 -24 60 24 45 42 45 42 7 2 -39 -43 -48 -75 -21 -75 9 0 12 -5 8 -12 -10 -16 148 125 167 149 12 16 12 17 -2 6 -12 -10 -19 -10 -35 1 -17 13 -22 12 -49 -12 -17 -15 -12 -8 10 16 38 40 38 42 15 42 -16 0 -49 -22 -92 -61 z  m 12 -113 c 0 -3 -5 -8 -12 -12 -7 -4 -8 -3 -4 4 7 12 16 16 16 8 z "/><path d="M 2732 5234 c -42 -29 -112 -200 -112 -273 0 -39 1 -41 30 -41 31 0 150 29 161 39 4 3 9 70 13 149 6 142 6 142 -32 142 -20 0 -48 -7 -60 -16 z  m -85 -291 c -4 -3 -7 0 -7 7 0 7 3 10 7 7 3 -4 3 -10 0 -14 z "/><path d="M 2230 4918 c -15 -69 -30 -200 -30 -260 0 -48 0 -48 35 -48 35 0 35 0 35 46 0 43 16 74 39 74 22 0 26 170 5 225 -9 24 -24 17 -24 -10 0 -14 -4 -25 -9 -25 -4 0 -6 11 -3 25 3 20 0 25 -16 25 -16 0 -23 -10 -32 -52 z "/><path d="M 7990 4933 c 0 -56 -36 -195 -75 -294 -35 -87 -44 -139 -24 -139 34 0 155 386 132 423 -3 6 -1 7 5 3 7 -4 12 -18 12 -31 0 -13 5 -27 10 -30 6 -4 10 15 10 49 0 56 0 56 -35 56 -34 0 -35 -1 -35 -37 z "/><path d="M 2593 4893 c -15 -6 -18 -73 -3 -73 6 0 10 5 10 10 0 6 16 20 35 31 19 12 35 25 35 30 0 9 -56 11 -77 2 z "/><path d="M 2678 4823 c -26 -7 -22 -33 5 -33 12 -1 -16 -13 -61 -28 -84 -27 -84 -27 -168 -287 -241 -742 -414 -1296 -414 -1328 0 -37 0 -37 43 -38 42 -1 42 -1 10 -11 -21 -7 -33 -17 -33 -29 0 -10 -8 -23 -17 -28 -26 -15 -11 -13 28 3 19 7 44 17 57 21 23 7 23 6 5 -14 -9 -12 -22 -21 -28 -21 -5 0 -19 -8 -30 -16 -19 -16 -19 -16 5 -10 19 5 17 2 -10 -13 -33 -19 -34 -21 -13 -27 19 -5 13 -11 -40 -38 -62 -31 -62 -31 -94 -126 -17 -52 -32 -105 -32 -117 -1 -13 -5 -23 -11 -23 -5 0 -10 -16 -10 -35 0 -44 26 -48 35 -6 12 54 132 118 240 128 65 6 65 6 84 72 11 36 23 78 27 94 3 16 13 27 23 27 33 0 60 -12 64 -29 3 -9 5 0 6 20 1 33 -2 37 -30 43 -17 3 -53 6 -80 6 -27 0 -49 5 -49 10 0 6 5 10 10 10 6 0 10 5 10 11 0 8 -15 10 -47 6 -43 -6 -45 5 -3 15 8 2 18 7 21 11 5 7 31 13 72 16 4 1 7 6 7 12 0 7 -18 9 -52 5 -38 -3 -44 -3 -23 3 17 5 47 9 68 10 57 2 44 19 -20 27 -58 8 -58 8 -13 16 26 4 60 3 83 -3 21 -6 63 -7 93 -3 53 6 54 7 54 40 0 44 -26 46 -35 3 -5 -23 -11 -29 -23 -24 -10 4 -29 9 -43 12 -26 5 -26 5 17 146 23 78 84 282 134 452 130 440 256 844 275 885 15 34 16 31 12 -87 -3 -110 -1 -123 14 -123 11 0 19 11 23 31 8 41 8 209 0 277 -7 52 -7 52 -50 52 -37 0 -44 3 -44 20 0 20 -14 23 -52 13 z  m -601 -1690 c -4 -3 -10 -3 -14 0 -3 4 0 7 7 7 7 0 10 -3 7 -7 z  m 90 -19 c -3 -3 -12 -4 -19 -1 -8 3 -5 6 6 6 11 1 17 -2 13 -5 z  m 10 -140 c -3 -3 -12 -4 -19 -1 -8 3 -5 6 6 6 11 1 17 -2 13 -5 z "/><path d="M 7836 4474 c -3 -9 -6 -24 -6 -35 0 -10 -7 -19 -15 -19 -8 0 -15 -7 -15 -15 0 -8 -4 -15 -10 -15 -5 0 -10 -7 -10 -15 0 -8 -4 -15 -10 -15 -5 0 -10 -7 -10 -15 0 -8 -4 -15 -10 -15 -5 0 -10 -6 -10 -14 0 -8 -7 -16 -15 -20 -8 -3 -15 -12 -15 -20 0 -7 -7 -16 -15 -20 -8 -3 -15 -12 -15 -20 0 -7 -7 -16 -15 -20 -8 -3 -15 -14 -15 -25 0 -10 -9 -21 -20 -24 -15 -4 -20 -14 -20 -36 0 -26 -4 -31 -23 -31 -34 0 -77 -49 -77 -88 0 -18 3 -32 8 -31 9 0 156 174 216 254 53 71 156 234 156 247 0 15 -48 8 -54 -8 z "/><path d="M 2283 4413 c -19 -3 -23 -11 -23 -39 0 -34 0 -34 61 -34 60 0 60 0 57 38 -3 35 -5 37 -38 38 -19 1 -45 0 -57 -3 z "/><path d="M 2711 4213 c -28 -104 -51 -191 -51 -195 0 -5 9 -8 20 -8 16 0 20 7 20 35 0 19 5 35 10 35 6 0 10 -11 10 -25 0 -47 26 -26 43 35 21 76 21 80 -3 80 -11 0 -20 1 -20 3 0 1 7 24 15 51 8 27 15 62 15 78 0 15 5 28 10 28 6 0 10 16 10 35 0 22 -5 35 -13 35 -9 0 -31 -64 -66 -187 z  m 29 -88 c 0 -14 -4 -25 -10 -25 -5 0 -10 11 -10 25 0 14 5 25 10 25 6 0 10 -11 10 -25 z "/><path d="M 2803 4135 c 0 -22 2 -30 4 -17 2 12 2 30 0 40 -3 9 -5 -1 -4 -23 z "/><path d="M 2636 3958 c -10 -38 -7 -48 14 -48 16 0 20 -7 20 -30 0 -16 -4 -30 -10 -30 -5 0 -10 -16 -10 -35 0 -19 -4 -35 -10 -35 -5 0 -10 -16 -10 -35 0 -19 -4 -35 -10 -35 -5 0 -10 -16 -10 -35 0 -22 5 -35 13 -35 9 0 27 48 50 133 21 72 37 135 37 140 0 4 -9 7 -20 7 -16 0 -20 7 -20 30 0 36 -25 41 -34 8 z "/><path d="M 2587 3775 c -32 -114 -32 -115 -7 -115 16 0 20 7 20 35 0 19 5 35 10 35 6 0 10 16 10 35 0 19 5 35 10 35 6 0 10 16 10 35 0 67 -25 39 -53 -60 z "/><path d="M 2798 3843 c -6 -28 2 -53 18 -53 9 0 14 11 14 35 0 37 -24 50 -32 18 z "/><path d="M 2795 3750 c -9 -40 3 -90 21 -90 10 0 14 15 14 60 0 45 -4 60 -14 60 -8 0 -17 -13 -21 -30 z "/><path d="M 2797 3629 c -8 -30 -9 -533 -1 -564 3 -14 12 -25 20 -25 12 0 14 51 14 305 0 253 -2 305 -14 305 -7 0 -16 -10 -19 -21 z "/><path d="M 2497 3458 c -21 -73 -37 -136 -37 -140 0 -5 9 -8 20 -8 16 0 20 -7 20 -30 0 -52 25 -34 43 30 21 76 21 80 -3 80 -16 0 -20 7 -20 30 0 17 5 30 10 30 6 0 10 16 10 35 0 19 5 35 10 35 6 0 10 16 10 35 0 22 -5 35 -13 35 -9 0 -27 -48 -50 -132 z  m 23 -108 c 0 -16 -4 -30 -10 -30 -5 0 -10 14 -10 30 0 17 5 30 10 30 6 0 10 -13 10 -30 z "/><path d="M 2570 3535 c 0 -40 24 -49 34 -12 10 37 7 47 -14 47 -16 0 -20 -7 -20 -35 z "/><path d="M 2426 3039 c -10 -51 -7 -79 8 -79 8 0 18 19 25 44 15 60 14 66 -8 66 -13 0 -20 -10 -25 -31 z "/><path d="M 2807 3001 c 7 -27 42 -56 82 -70 48 -16 61 -14 61 9 0 16 -7 20 -30 20 -16 0 -30 5 -30 10 0 6 -9 10 -20 10 -13 0 -20 7 -20 20 0 14 -7 20 -24 20 -19 0 -23 -4 -19 -19 z "/><path d="M 3010 2905 c 0 -11 62 -114 75 -125 13 -11 15 -7 15 24 0 29 -4 36 -20 36 -16 0 -20 7 -20 35 0 31 -3 35 -25 35 -14 0 -25 -2 -25 -5 z "/><path d="M 2305 2779 c -28 -100 -28 -100 -76 -94 -59 8 -109 -2 -109 -21 0 -11 16 -14 70 -14 40 0 70 4 70 10 0 6 14 10 30 10 28 0 30 3 30 35 0 19 5 35 10 35 6 0 10 16 10 35 0 19 5 35 10 35 6 0 10 16 10 35 0 22 -5 35 -13 35 -9 0 -24 -38 -42 -101 z "/><path d="M 2366 2819 c -10 -51 -7 -79 8 -79 8 0 18 19 25 44 15 60 14 66 -8 66 -13 0 -20 -10 -25 -31 z "/><path d="M 7328 2843 c -27 -7 -31 -54 -26 -294 3 -179 7 -222 18 -230 9 -5 195 -8 450 -6 435 2 435 2 441 119 3 64 3 183 0 265 -6 148 -6 148 -436 149 -236 1 -438 0 -447 -3 z  m 39 -29 c -3 -3 -12 -4 -19 -1 -8 3 -5 6 6 6 11 1 17 -2 13 -5 z  m 552 -209 c 35 -36 35 -62 2 -95 -29 -30 -29 -30 -158 -30 -100 0 -133 3 -151 16 -35 24 -44 49 -30 80 21 45 58 55 195 52 107 -3 125 -5 142 -23 z  m -562 -262 c -4 -3 -10 -3 -14 0 -3 4 0 7 7 7 7 0 10 -3 7 -7 z "/><path d="M 3115 2740 c 11 -11 35 -22 53 -26 28 -6 32 -4 32 14 0 21 -24 32 -75 32 -29 0 -29 0 -10 -20 z "/><path d="M 4330 2685 c 0 -24 1 -25 32 -12 46 19 48 37 4 37 -32 0 -36 -3 -36 -25 z "/><path d="M 3217 2678 c -10 -35 4 -105 24 -127 34 -36 199 -41 199 -6 0 12 -16 15 -76 15 -92 0 -106 10 -112 86 -5 56 -24 74 -35 32 z "/><path d="M 4240 2660 c 0 -21 10 -24 48 -14 36 10 27 34 -13 34 -28 0 -35 -4 -35 -20 z "/><path d="M 2025 2653 c -85 -44 -126 -125 -95 -184 18 -33 30 -21 30 31 0 28 5 50 10 50 6 0 10 11 10 25 0 20 5 25 25 25 16 0 25 6 25 15 0 10 10 15 30 15 23 0 30 4 30 20 0 24 -23 25 -65 3 z "/><path d="M 3940 2590 c 0 -21 10 -24 48 -14 36 10 27 34 -13 34 -28 0 -35 -4 -35 -20 z "/><path d="M 3800 2570 c 0 -21 10 -24 48 -14 36 10 27 34 -13 34 -28 0 -35 -4 -35 -20 z "/><path d="M 3710 2560 c 0 -21 10 -24 48 -14 36 10 27 34 -13 34 -28 0 -35 -4 -35 -20 z "/><path d="M 3600 2550 c 0 -21 10 -24 48 -14 36 10 27 34 -13 34 -28 0 -35 -4 -35 -20 z "/><path d="M 1850 2528 c 0 -18 3 -50 6 -70 6 -31 11 -38 30 -38 21 0 23 3 14 26 -6 14 -10 45 -10 70 0 37 -3 44 -20 44 -16 0 -20 -7 -20 -32 z "/><path d="M 2003 2423 c -13 -2 -23 -8 -23 -13 0 -10 1627 -821 1684 -840 41 -13 47 -11 76 30 21 30 21 30 -9 30 -20 0 -31 -5 -31 -14 0 -9 -7 -12 -20 -9 -11 3 -20 11 -20 17 0 20 -82 68 -305 177 -115 56 -307 150 -425 209 -118 59 -228 110 -244 114 -16 4 -43 18 -60 31 -17 13 -69 41 -116 63 -175 81 -366 176 -389 194 -23 17 -65 21 -118 11 z "/><path d="M 1990 2326 c 0 -26 16 -36 60 -36 31 0 48 15 27 23 -6 3 -29 12 -49 21 -38 16 -38 16 -38 -8 z "/><path d="M 2168 2240 c 4 -27 8 -30 38 -30 44 0 43 11 -4 38 -38 21 -38 21 -34 -8 z "/><path d="M 2580 2027 c 0 -18 17 -31 95 -70 52 -26 102 -47 110 -47 8 0 15 -4 15 -10 0 -5 16 -10 35 -10 19 0 35 4 35 9 0 8 -269 151 -284 151 -3 0 -6 -10 -6 -23 z "/><path d="M 7448 1983 c -13 -3 -18 -15 -18 -43 0 -75 -22 -70 320 -70 345 0 340 -1 340 69 0 38 0 38 -67 44 -76 8 -548 7 -575 0 z  m 39 -29 c -3 -3 -12 -4 -19 -1 -8 3 -5 6 6 6 11 1 17 -2 13 -5 z  m 556 -1 c -13 -2 -35 -2 -50 0 -16 2 -5 4 22 4 28 0 40 -2 28 -4 z "/><path d="M 3767 1580 c -22 -63 -54 -86 -97 -72 -28 10 -30 9 -30 -14 0 -23 3 -24 55 -24 48 0 55 2 55 20 0 13 7 20 20 20 15 0 20 7 20 25 0 14 5 25 10 25 6 0 10 16 10 35 0 51 -22 44 -43 -15 z "/></g><g fill="#495656"><path d="M 4888 8023 c -33 -8 -20 -33 17 -33 28 0 35 4 35 20 0 20 -14 23 -52 13 z "/><path d="M 5490 8010 c 0 -16 7 -20 35 -20 40 0 49 24 13 34 -38 10 -48 7 -48 -14 z "/><path d="M 7619 7935 c -7 -41 -17 -75 -21 -75 -4 0 -8 -16 -8 -36 0 -24 4 -34 13 -32 14 5 51 111 62 176 6 37 5 42 -13 42 -16 0 -21 -12 -33 -75 z "/><path d="M 4558 7993 c -33 -8 -20 -33 17 -33 28 0 35 4 35 20 0 20 -14 23 -52 13 z "/><path d="M 7068 7982 c -37 -22 -35 -32 7 -32 31 0 35 3 35 25 0 29 -6 30 -42 7 z "/><path d="M 2718 7863 c -33 -8 -20 -33 17 -33 28 0 35 4 35 20 0 20 -14 23 -52 13 z "/><path d="M 3190 7815 c 0 -22 4 -25 36 -25 44 0 42 18 -4 37 -31 13 -32 12 -32 -12 z "/><path d="M 3310 7751 c 0 -29 3 -31 36 -31 39 0 38 9 -6 40 -30 21 -30 21 -30 -9 z "/><path d="M 6640 7755 c 0 -22 4 -25 36 -25 44 0 42 18 -4 37 -31 13 -32 12 -32 -12 z "/><path d="M 3633 7755 c -43 -18 -42 -35 2 -35 31 0 35 3 35 25 0 14 -1 25 -2 25 -2 -1 -18 -7 -35 -15 z "/><path d="M 6750 7715 c 0 -22 4 -25 36 -25 44 0 42 18 -4 37 -31 13 -32 12 -32 -12 z "/><path d="M 3523 7715 c -43 -18 -42 -35 2 -35 31 0 35 3 35 25 0 14 -1 25 -2 25 -2 -1 -18 -7 -35 -15 z "/><path d="M 7530 7695 c 0 -43 10 -44 33 -6 22 38 22 41 -8 41 -22 0 -25 -4 -25 -35 z "/><path d="M 2753 7480 c 8 -11 31 -39 52 -62 33 -34 36 -43 27 -59 -11 -17 -9 -19 18 -19 27 0 30 3 30 31 0 37 -20 59 -54 59 -23 0 -26 4 -26 35 0 32 -2 35 -31 35 -28 0 -29 -1 -16 -20 z "/><path d="M 7350 7415 c 0 -22 4 -25 35 -25 43 0 44 10 6 33 -38 22 -41 22 -41 -8 z "/><path d="M 7430 7365 c 0 -16 6 -25 15 -25 8 0 15 -4 15 -10 0 -5 14 -10 30 -10 23 0 30 -4 30 -20 0 -16 7 -20 35 -20 28 0 35 4 35 20 0 12 -5 17 -13 14 -7 -2 -40 13 -73 36 -32 22 -62 40 -66 40 -5 0 -8 -11 -8 -25 z "/><path d="M 2370 6980 c -35 -29 -35 -29 3 -30 35 0 37 2 37 30 0 17 -1 30 -3 30 -1 0 -18 -13 -37 -30 z "/><path d="M 2194 6793 c -73 -89 -70 -83 -35 -83 28 0 31 3 31 30 0 25 4 30 25 30 22 0 25 4 25 35 0 19 -2 35 -3 35 -2 0 -21 -21 -43 -47 z "/><path d="M 1870 6806 c 0 -13 7 -27 16 -30 22 -9 74 -7 74 2 0 9 -32 29 -66 42 -21 8 -24 7 -24 -14 z "/><path d="M 8200 6755 c 0 -22 4 -25 35 -25 43 0 44 10 6 33 -38 22 -41 22 -41 -8 z "/><path d="M 1328 6742 c -37 -22 -35 -32 7 -32 31 0 35 3 35 25 0 29 -6 30 -42 7 z "/><path d="M 8620 6451 c 0 -29 3 -31 36 -31 39 0 38 9 -6 40 -30 21 -30 21 -30 -9 z "/><path d="M 4935 6445 c -49 -7 -98 -14 -107 -14 -14 -1 -18 -10 -18 -36 0 -38 24 -50 33 -16 4 15 22 21 108 32 57 7 130 12 162 11 51 -1 57 1 57 18 0 18 -7 20 -72 19 -40 -1 -113 -7 -163 -14 z "/><path d="M 5320 6436 c 0 -13 28 -26 58 -26 6 0 12 9 12 20 0 16 -7 20 -35 20 -23 0 -35 -5 -35 -14 z "/><path d="M 5440 6426 c 0 -13 28 -26 58 -26 6 0 12 9 12 20 0 16 -7 20 -35 20 -23 0 -35 -5 -35 -14 z "/><path d="M 4680 6400 c 0 -21 10 -24 48 -14 36 10 27 34 -13 34 -28 0 -35 -4 -35 -20 z "/><path d="M 5700 6396 c 0 -13 28 -26 58 -26 6 0 12 9 12 20 0 16 -7 20 -35 20 -23 0 -35 -5 -35 -14 z "/><path d="M 5458 6373 c 6 -2 18 -2 25 0 6 3 1 5 -13 5 -14 0 -19 -2 -12 -5 z "/><path d="M 5900 6366 c 0 -13 28 -26 58 -26 6 0 12 9 12 20 0 16 -7 20 -35 20 -23 0 -35 -5 -35 -14 z "/><path d="M 4480 6305 c 0 -31 3 -35 25 -35 18 0 25 -5 25 -20 0 -16 7 -20 37 -20 37 0 37 0 -22 55 -33 30 -61 55 -62 55 -2 0 -3 -16 -3 -35 z "/><path d="M 5590 6285 c 0 -22 4 -25 35 -25 43 0 44 10 6 33 -38 22 -41 22 -41 -8 z "/></g></svg>