<svg xmlns="http://www.w3.org/2000/svg" width="784px" height="784px" viewBox="0 0 10240 10240" preserveAspectRatio="xMidYMid meet"><g fill="#5d422e"><path d="M 4278 6912 c -37 -22 -35 -32 5 -33 17 -1 24 -3 15 -6 -16 -4 -27 -53 -13 -53 12 0 165 95 165 103 0 4 -16 7 -35 7 -28 0 -35 -4 -35 -20 0 -16 -7 -20 -30 -20 -23 0 -30 4 -30 20 0 24 -7 25 -42 2 z "/><path d="M 5650 6905 c 0 -20 5 -25 25 -25 16 0 25 -6 25 -15 0 -8 7 -15 15 -15 8 0 15 -4 15 -9 0 -5 8 -12 18 -14 9 -3 2 -5 -15 -6 -18 0 -33 -4 -33 -9 0 -7 102 -72 114 -72 3 0 6 9 6 20 0 16 7 20 30 20 17 0 30 3 30 8 0 7 -211 142 -223 142 -4 0 -7 -11 -7 -25 z  m 160 -105 c 0 -5 -9 -10 -20 -10 -11 0 -20 5 -20 10 0 6 9 10 20 10 11 0 20 -4 20 -10 z "/><path d="M 6260 6916 c 0 -15 30 -26 73 -26 20 0 27 5 27 20 0 17 -7 20 -50 20 -36 0 -50 -4 -50 -14 z "/><path d="M 6630 6910 c 0 -15 7 -20 28 -20 42 0 72 11 72 26 0 10 -14 14 -50 14 -43 0 -50 -3 -50 -20 z "/><path d="M 6750 6915 c 0 -8 7 -15 15 -15 9 0 15 -9 15 -25 0 -18 5 -25 20 -25 17 0 20 7 20 40 0 39 -1 40 -35 40 -24 0 -35 -5 -35 -15 z "/><path d="M 2357 6892 c -10 -10 -17 -34 -17 -52 0 -33 0 -33 26 -9 14 13 35 36 46 52 19 27 19 27 -10 27 -16 0 -36 -8 -45 -18 z "/><path d="M 5180 6877 c 0 -27 34 -47 80 -47 17 0 30 -4 30 -10 0 -5 -16 -10 -35 -10 -19 0 -35 -4 -35 -8 0 -5 45 -34 101 -66 69 -40 96 -61 88 -67 -8 -4 -42 -16 -76 -25 -70 -19 -86 -44 -28 -44 19 0 35 5 35 10 0 6 14 10 30 10 23 0 30 -4 30 -20 0 -24 11 -25 77 -5 50 15 50 15 181 -58 102 -56 126 -73 107 -75 -17 -2 -25 -10 -25 -23 0 -16 7 -19 40 -19 39 0 40 1 40 35 0 31 -3 35 -25 35 -18 0 -25 5 -25 20 0 16 -7 20 -35 20 -28 0 -35 4 -35 19 0 11 -6 22 -12 24 -7 3 -3 6 10 6 16 1 22 -5 22 -19 0 -16 7 -20 35 -20 28 0 35 -4 35 -20 0 -16 7 -20 35 -20 28 0 35 -4 35 -19 0 -10 7 -22 16 -25 22 -9 74 -7 74 2 0 4 -71 48 -157 97 -87 49 -223 127 -303 175 -158 94 -294 170 -304 170 -3 0 -6 -11 -6 -23 z  m 127 -94 c -4 -3 -10 -3 -14 0 -3 4 0 7 7 7 7 0 10 -3 7 -7 z  m 53 -18 c 0 -10 11 -15 35 -15 28 0 35 -4 35 -20 0 -15 7 -20 25 -20 16 0 25 -6 25 -15 0 -8 7 -15 15 -15 8 0 15 -4 15 -10 0 -5 16 -10 35 -10 23 0 35 -5 35 -14 0 -10 -14 -13 -57 -12 -32 0 -69 -2 -83 -5 -14 -3 -19 -4 -12 -2 18 7 16 73 -3 73 -8 0 -15 9 -15 20 0 16 -7 20 -35 20 -28 0 -35 4 -35 20 0 11 5 20 10 20 6 0 10 -7 10 -15 z  m 290 -165 c 0 -13 -7 -20 -20 -20 -13 0 -20 7 -20 20 0 13 7 20 20 20 13 0 20 -7 20 -20 z "/><path d="M 5570 6892 c 0 -7 102 -72 114 -72 3 0 6 11 6 25 0 20 -5 25 -25 25 -16 0 -25 6 -25 15 0 10 -11 15 -35 15 -19 0 -35 -3 -35 -8 z "/><path d="M 5070 6880 c 0 -8 51 -40 65 -40 3 0 5 11 5 25 0 22 -4 25 -35 25 -19 0 -35 -4 -35 -10 z "/><path d="M 2923 6873 c -15 -3 -23 -12 -23 -24 0 -22 6 -23 66 -8 82 21 44 49 -43 32 z "/><path d="M 7940 6842 c 0 -7 173 -112 185 -112 3 0 5 11 5 25 0 20 -5 25 -25 25 -16 0 -25 6 -25 15 0 10 -11 15 -35 15 -28 0 -35 4 -35 20 0 16 -7 20 -35 20 -19 0 -35 -3 -35 -8 z "/><path d="M 3733 6828 c -45 -15 -43 -38 2 -38 31 0 35 3 35 25 0 14 -1 25 -2 24 -2 -1 -18 -6 -35 -11 z "/><path d="M 7620 6820 c 0 -16 -7 -20 -36 -20 -44 0 -42 -18 4 -37 30 -12 32 -12 32 7 0 15 7 20 25 20 14 0 25 -4 25 -10 0 -5 -9 -10 -21 -10 -30 0 -18 -22 19 -37 31 -13 32 -12 32 12 0 18 5 25 20 25 11 0 20 -6 20 -14 0 -8 6 -17 13 -19 6 -3 2 -6 -10 -6 -46 -2 -16 -31 62 -61 22 -8 25 -7 25 14 0 14 -9 27 -22 34 -23 11 -23 11 0 11 56 2 9 33 -140 92 -48 19 -48 19 -48 -1 z "/><path d="M 3495 6796 c -77 -13 -155 -26 -172 -30 -41 -9 -44 -36 -5 -37 19 -1 13 -5 -23 -13 -46 -11 -50 -11 -53 6 -4 23 -19 23 -82 -2 -107 -42 -205 -121 -272 -217 -29 -43 -29 -43 2 -43 25 0 30 -4 30 -25 0 -40 23 -29 44 20 12 30 41 66 84 105 66 59 66 60 37 61 -17 1 -22 3 -12 6 9 2 17 10 17 18 0 7 14 15 30 17 24 4 30 1 30 -14 0 -17 3 -17 34 -4 68 28 469 106 482 94 2 -3 -12 -25 -31 -49 -35 -44 -35 -44 -10 -47 19 -3 25 -9 25 -28 0 -19 -5 -24 -25 -24 -18 0 -25 -5 -25 -20 0 -11 -7 -20 -15 -20 -8 0 -15 -9 -15 -20 0 -33 -18 -23 -22 12 -3 33 -3 33 -65 -47 -54 -69 -59 -80 -43 -83 15 -3 20 -11 20 -33 0 -24 -4 -29 -24 -29 -17 0 -26 6 -28 21 -2 18 -12 10 -61 -47 -58 -69 -58 -69 -27 -72 36 -4 42 -32 6 -32 -32 0 -48 -22 -44 -62 3 -33 4 -31 116 100 62 74 148 180 191 235 44 56 118 147 166 202 83 96 85 100 60 103 -35 4 -55 -14 -55 -49 0 -24 -4 -29 -25 -29 -20 0 -25 5 -25 25 0 24 -3 25 -57 27 -43 1 -48 2 -20 5 29 3 37 9 37 24 0 23 2 23 -175 -5 z  m 78 -33 c -7 -2 -21 -2 -30 0 -10 3 -4 5 12 5 17 0 24 -2 18 -5 z  m -70 -10 c -7 -2 -19 -2 -25 0 -7 3 -2 5 12 5 14 0 19 -2 13 -5 z  m -60 -10 c -7 -2 -19 -2 -25 0 -7 3 -2 5 12 5 14 0 19 -2 13 -5 z  m -56 -9 c -3 -3 -12 -4 -19 -1 -8 3 -5 6 6 6 11 1 17 -2 13 -5 z  m 323 -59 c 0 -20 -5 -25 -25 -25 -33 0 -35 37 -2 43 12 2 23 5 25 6 1 0 2 -10 2 -24 z  m -507 8 c -7 -2 -21 -2 -30 0 -10 3 -4 5 12 5 17 0 24 -2 18 -5 z  m -163 -88 c 0 -8 -7 -15 -15 -15 -8 0 -15 7 -15 15 0 8 7 15 15 15 8 0 15 -7 15 -15 z  m -60 -70 c 0 -18 -5 -25 -20 -25 -15 0 -20 7 -20 25 0 18 5 25 20 25 15 0 20 -7 20 -25 z  m 560 -45 c 0 -11 -4 -20 -10 -20 -5 0 -10 9 -10 20 0 11 5 20 10 20 6 0 10 -9 10 -20 z  m -40 -45 c 0 -14 -4 -25 -10 -25 -5 0 -10 11 -10 25 0 14 5 25 10 25 6 0 10 -11 10 -25 z  m -90 -130 c 0 -9 -9 -15 -25 -15 -16 0 -25 6 -25 15 0 9 9 15 25 15 16 0 25 -6 25 -15 z "/><path d="M 4025 6733 c -110 -88 -110 -88 -72 -91 30 -3 37 -7 37 -24 0 -20 1 -19 33 6 17 14 66 52 107 83 75 58 75 58 43 61 -25 3 -32 8 -35 28 -3 24 -9 20 -113 -63 z  m 102 21 c -3 -3 -12 -4 -19 -1 -8 3 -5 6 6 6 11 1 17 -2 13 -5 z  m -27 -34 c 0 -5 -11 -10 -25 -10 -14 0 -25 5 -25 10 0 6 11 10 25 10 14 0 25 -4 25 -10 z  m -50 -39 c 0 -5 -13 -11 -30 -13 -20 -3 -30 0 -30 9 0 8 12 13 30 13 17 0 30 -4 30 -9 z "/><path d="M 6780 6787 c 0 -54 31 -158 68 -229 2 -4 -40 9 -93 28 -111 40 -125 41 -125 14 0 -13 -7 -20 -20 -20 -11 0 -20 -6 -20 -13 0 -7 58 -32 140 -59 140 -46 140 -46 140 -23 0 14 -7 25 -17 28 -17 4 -17 5 0 6 14 1 17 10 17 50 0 27 -6 56 -13 63 -14 14 -37 104 -37 144 0 17 -6 24 -20 24 -11 0 -20 -6 -20 -13 z  m 17 -254 c -4 -3 -10 -3 -14 0 -3 4 0 7 7 7 7 0 10 -3 7 -7 z "/><path d="M 5980 6751 c 0 -15 14 -20 93 -32 51 -7 80 -15 65 -17 -16 -2 -28 -9 -28 -16 0 -13 45 -28 128 -41 38 -6 42 -5 42 14 0 16 6 21 25 21 15 0 25 6 25 14 0 16 -37 25 -218 57 -138 23 -132 23 -132 0 z  m 227 -57 c -3 -3 -12 -4 -19 -1 -8 3 -5 6 6 6 11 1 17 -2 13 -5 z  m 46 -11 c -7 -2 -19 -2 -25 0 -7 3 -2 5 12 5 14 0 19 -2 13 -5 z "/><path d="M 7340 6717 c 0 -26 4 -37 15 -37 8 0 15 -9 15 -21 0 -20 17 -59 29 -69 9 -7 50 -176 57 -237 6 -52 7 -53 40 -53 38 0 43 9 15 27 -12 8 -20 29 -25 70 -15 125 -78 295 -127 339 -18 17 -19 16 -19 -19 z "/><path d="M 5860 6722 c 0 -7 194 -122 205 -122 3 0 5 11 5 25 0 20 -5 25 -25 25 -16 0 -25 6 -25 15 0 9 -9 15 -25 15 -14 0 -25 6 -25 13 0 8 -11 19 -25 25 -29 13 -85 16 -85 4 z "/><path d="M 7503 6717 c -24 -30 -24 -37 4 -48 18 -7 23 -13 15 -18 -12 -7 0 -22 52 -61 18 -14 18 -13 14 23 -2 20 0 37 4 37 4 0 8 -13 8 -28 0 -38 17 -52 60 -52 35 1 35 1 -20 51 -102 92 -127 110 -137 96 z "/><path d="M 8140 6722 c 0 -8 52 -42 64 -42 3 0 6 11 6 25 0 22 -4 25 -35 25 -19 0 -35 -4 -35 -8 z "/><path d="M 2878 6703 c -25 -6 -23 -33 2 -33 11 0 20 -7 20 -15 0 -8 -5 -15 -11 -15 -16 0 -39 26 -39 44 0 20 8 21 -193 -14 -304 -53 -412 -73 -427 -78 -33 -12 27 41 73 64 54 28 60 44 17 44 -37 0 -80 -19 -80 -36 0 -7 -10 -14 -22 -16 -19 -2 -24 -10 -26 -41 -3 -35 -1 -38 27 -43 21 -5 31 -12 31 -25 0 -22 6 -23 85 -4 32 8 61 12 63 10 2 -2 -13 -13 -35 -24 -38 -21 -38 -21 5 -15 38 6 42 5 42 -15 0 -17 -6 -21 -29 -21 -39 0 -61 -9 -61 -26 0 -8 -9 -14 -20 -14 -13 0 -20 7 -20 20 0 11 -3 20 -6 20 -12 0 -94 -55 -94 -62 0 -5 15 -9 33 -9 17 -1 24 -3 15 -6 -10 -2 -18 -9 -18 -14 0 -5 -7 -9 -15 -9 -8 0 -15 -4 -15 -10 0 -5 -4 -10 -10 -10 -5 0 -10 11 -10 25 0 25 -2 25 -77 -26 -43 -29 -98 -67 -122 -86 -24 -18 -46 -31 -49 -28 -3 3 16 36 42 75 46 70 46 70 16 70 -20 0 -30 -5 -30 -15 0 -8 -4 -15 -10 -15 -5 0 -10 -7 -10 -15 0 -8 -4 -15 -10 -15 -5 0 -10 -11 -10 -25 0 -14 -7 -28 -15 -31 -9 -4 -15 -19 -15 -40 0 -32 2 -34 35 -34 19 0 35 -4 35 -10 0 -5 -9 -10 -20 -10 -13 0 -20 -7 -20 -20 0 -15 -7 -20 -25 -20 -20 0 -25 -5 -25 -25 0 -21 -5 -25 -30 -25 -27 0 -30 -3 -30 -29 0 -27 -3 -30 -37 -33 -30 -2 -39 -8 -41 -25 -2 -15 -11 -23 -30 -25 -22 -2 -28 -9 -30 -35 -3 -30 -6 -33 -36 -33 -39 0 -56 -15 -56 -52 0 -25 -3 -28 -34 -28 -40 0 -59 -19 -54 -56 3 -26 6 -24 103 62 380 339 642 530 921 672 120 60 282 122 323 122 7 0 -8 -17 -33 -37 -24 -21 -45 -41 -45 -45 -1 -13 64 -9 77 4 9 9 12 7 12 -10 0 -32 17 -27 36 10 9 18 35 56 57 85 23 31 37 59 33 68 -5 15 -40 18 -78 8 z  m -131 -60 c -4 -3 -10 -3 -14 0 -3 4 0 7 7 7 7 0 10 -3 7 -7 z  m -74 -20 c -29 -9 -53 -19 -53 -24 0 -5 -9 -9 -20 -9 -11 0 -47 -13 -80 -30 -33 -16 -62 -30 -65 -30 -3 0 -5 14 -5 30 0 17 -6 30 -12 31 -18 2 231 46 262 47 14 0 1 -7 -27 -15 z  m 194 -40 c -4 -3 -10 -3 -14 0 -3 4 0 7 7 7 7 0 10 -3 7 -7 z  m -600 -170 c -4 -3 -10 -3 -14 0 -3 4 0 7 7 7 7 0 10 -3 7 -7 z  m -120 -80 c -4 -3 -10 -3 -14 0 -3 4 0 7 7 7 7 0 10 -3 7 -7 z  m -30 -20 c -4 -3 -10 -3 -14 0 -3 4 0 7 7 7 7 0 10 -3 7 -7 z  m -27 -33 c 0 -15 -7 -20 -25 -20 -14 0 -25 5 -25 10 0 6 7 10 15 10 8 0 15 5 15 10 0 6 5 10 10 10 6 0 10 -9 10 -20 z  m -70 -35 c 0 -8 -4 -15 -10 -15 -5 0 -10 7 -10 15 0 8 5 15 10 15 6 0 10 -7 10 -15 z  m -40 -30 c 0 -8 -4 -15 -10 -15 -5 0 -10 7 -10 15 0 8 5 15 10 15 6 0 10 -7 10 -15 z "/><path d="M 6350 6680 c 0 -15 -7 -20 -25 -20 -31 0 -33 -25 -2 -34 37 -10 47 -7 47 13 0 16 6 18 45 13 36 -4 45 -1 45 11 0 9 -16 19 -44 26 -60 15 -66 14 -66 -9 z "/><path d="M 7960 6656 c 0 -13 6 -27 13 -29 7 -3 5 -6 -5 -6 -10 -1 -18 6 -18 14 0 10 -11 15 -35 15 -19 0 -35 -3 -35 -7 0 -5 31 -27 68 -51 45 -29 85 -66 122 -114 30 -38 65 -82 77 -97 22 -26 22 -26 23 12 0 20 -4 37 -10 37 -5 0 -10 7 -10 15 0 8 -9 15 -20 15 -15 0 -20 7 -20 25 0 18 -5 25 -20 25 -14 0 -20 7 -20 23 0 25 -31 57 -55 57 -8 0 -15 7 -15 15 0 9 9 15 25 15 18 0 25 -5 25 -20 0 -15 7 -20 25 -20 16 0 25 -6 25 -15 0 -9 9 -15 25 -15 16 0 25 -6 25 -15 0 -10 11 -15 35 -15 19 0 35 4 35 8 0 8 -240 152 -253 152 -4 0 -7 -11 -7 -24 z "/><path d="M 8220 6673 c 1 -5 42 -36 93 -70 51 -35 144 -103 207 -153 186 -146 170 -137 170 -101 0 26 -4 31 -25 31 -18 0 -25 5 -25 20 0 15 -7 20 -25 20 -18 0 -25 5 -25 20 0 15 -7 20 -25 20 -18 0 -25 5 -25 20 0 13 -7 20 -20 20 -11 0 -20 7 -20 15 0 8 -9 15 -20 15 -11 0 -20 7 -20 15 0 10 -11 15 -35 15 -31 0 -35 3 -35 25 0 22 -4 25 -35 25 -31 0 -35 3 -35 25 0 16 -6 25 -15 25 -8 0 -15 5 -15 10 0 6 -16 10 -35 10 -19 0 -35 -3 -35 -7 z "/><path d="M 6110 6636 c 0 -13 6 -27 13 -29 6 -3 2 -6 -10 -6 -31 -1 -29 -13 6 -34 38 -22 41 -22 41 8 0 18 5 25 20 25 31 0 24 14 -19 38 -49 28 -51 27 -51 -2 z "/><path d="M 6500 6640 c 0 -15 -7 -20 -25 -20 -14 0 -25 5 -25 10 0 6 -16 10 -35 10 -63 0 -41 -25 44 -48 96 -27 101 -27 101 -3 0 12 -8 21 -22 24 -20 4 -19 4 5 6 33 1 36 26 5 35 -38 10 -48 7 -48 -14 z "/><path d="M 5188 6603 c -26 -7 -22 -33 5 -34 21 -1 21 -1 -3 -9 -39 -13 -50 -11 -50 6 0 19 7 20 -167 -27 -80 -21 -123 -37 -123 -46 0 -7 11 -13 25 -13 32 0 158 31 165 40 3 4 26 10 53 13 47 7 47 7 47 -25 0 -31 0 -31 50 -25 29 4 50 2 50 -3 0 -6 20 -10 45 -10 32 0 45 4 45 14 0 17 -30 25 -100 27 -55 1 -55 1 -2 17 51 15 72 42 32 42 -13 0 -20 7 -20 20 0 20 -14 23 -52 13 z "/><path d="M 6220 6576 c 0 -26 16 -36 61 -36 40 0 36 12 -10 38 -48 27 -51 27 -51 -2 z "/><path d="M 3886 6561 c -20 -21 -27 -37 -24 -60 3 -32 3 -32 63 29 59 60 59 60 24 60 -26 0 -43 -8 -63 -29 z "/><path d="M 2133 6533 c -13 -2 -23 -9 -23 -14 0 -5 -7 -9 -15 -9 -8 0 -15 -9 -15 -20 0 -15 -7 -20 -25 -20 -21 0 -25 -5 -25 -31 0 -24 3 -29 13 -22 73 58 111 81 141 87 47 9 50 37 4 35 -18 -1 -43 -4 -55 -6 z "/><path d="M 6350 6506 c 0 -13 6 -27 13 -29 6 -3 2 -6 -10 -6 -16 -1 -23 5 -23 18 0 10 -7 22 -16 25 -23 9 -74 7 -74 -2 0 -8 180 -112 194 -112 3 0 6 11 6 25 0 18 5 25 20 25 11 0 20 4 20 9 0 8 -110 71 -124 71 -3 0 -6 -11 -6 -24 z "/><path d="M 2633 6499 c -51 -25 -55 -39 -10 -39 42 0 60 12 55 39 -3 21 -3 21 -45 0 z "/><path d="M 4788 6493 c -33 -8 -20 -33 17 -33 28 0 35 4 35 20 0 20 -14 23 -52 13 z "/><path d="M 5390 6480 c 0 -17 7 -20 40 -20 45 0 57 23 18 34 -42 11 -58 7 -58 -14 z "/><path d="M 8260 6475 c 0 -22 4 -25 35 -25 31 0 35 -3 35 -25 0 -16 6 -25 15 -25 8 0 15 -4 15 -10 0 -5 9 -10 20 -10 11 0 20 -7 20 -15 0 -8 9 -15 20 -15 11 0 20 -7 20 -15 0 -8 9 -15 20 -15 11 0 20 -7 20 -15 0 -8 9 -15 20 -15 11 0 20 -7 20 -15 0 -8 9 -15 20 -15 11 0 20 -7 20 -15 0 -8 9 -15 20 -15 11 0 20 -7 20 -15 0 -10 11 -15 35 -15 19 0 35 2 35 5 0 11 -388 295 -403 295 -4 0 -7 -11 -7 -25 z "/><path d="M 3686 6395 c -44 -55 -84 -106 -89 -112 -7 -10 -2 -13 22 -13 26 0 31 4 31 25 0 18 5 25 19 25 11 0 22 8 24 18 3 9 3 -2 1 -26 -4 -43 -4 -43 61 35 62 74 64 78 41 81 -20 3 -25 10 -28 35 -3 31 -5 29 -82 -68 z  m 64 -5 c 0 -20 -5 -30 -15 -30 -10 0 -15 10 -15 30 0 20 5 30 15 30 10 0 15 -10 15 -30 z "/><path d="M 5490 6470 c 0 -16 7 -20 35 -20 40 0 49 24 13 34 -38 10 -48 7 -48 -14 z "/><path d="M 4585 6455 c -71 -12 -193 -32 -270 -44 -178 -29 -185 -30 -185 -47 0 -19 19 -18 189 10 80 13 210 34 289 47 122 20 142 25 142 41 0 22 1 22 -165 -7 z "/><path d="M 5570 6460 c 0 -17 7 -20 40 -20 45 0 57 23 18 34 -42 11 -58 7 -58 -14 z "/><path d="M 6880 6472 c 0 -5 27 -25 60 -45 60 -35 60 -35 60 -6 0 24 -4 29 -25 29 -16 0 -25 6 -25 15 0 10 -11 15 -35 15 -19 0 -35 -4 -35 -8 z "/><path d="M 5660 6450 c 0 -16 7 -20 35 -20 40 0 49 24 13 34 -38 10 -48 7 -48 -14 z "/><path d="M 7728 6432 c 12 -16 28 -35 37 -42 15 -12 16 -10 13 26 -3 36 -5 39 -37 42 -33 3 -33 3 -13 -26 z "/><path d="M 5980 6425 c 0 -20 5 -25 25 -25 14 0 25 -4 25 -10 0 -5 11 -10 25 -10 14 0 25 -4 25 -8 0 -11 69 -32 104 -32 45 0 25 23 -40 46 -32 12 -83 31 -111 43 -53 21 -53 21 -53 -4 z "/><path d="M 7812 6415 c 3 -35 6 -40 31 -43 36 -4 35 -20 -3 -24 -31 -3 -31 -3 -1 -38 20 -24 30 -30 31 -19 0 12 7 15 25 11 18 -3 25 -11 25 -28 0 -15 -6 -24 -15 -24 -10 0 3 -26 41 -80 31 -45 55 -83 53 -85 -2 -1 -38 17 -79 41 -41 24 -78 44 -82 44 -5 0 -8 -11 -8 -24 0 -26 16 -36 61 -36 22 0 29 -5 29 -20 0 -15 7 -20 25 -20 14 0 25 -4 25 -10 0 -5 16 -10 35 -10 31 0 35 3 36 28 0 25 1 25 16 -10 12 -30 21 -38 40 -38 30 0 28 9 -20 88 -33 55 -164 224 -231 297 -36 40 -36 40 -34 0 z  m 164 -215 c 8 0 14 -4 14 -10 0 -5 -9 -10 -20 -10 -17 0 -20 6 -19 38 2 30 3 32 6 10 2 -16 11 -28 19 -28 z  m 53 -62 c 0 -16 -2 -18 -6 -8 -3 8 -11 18 -17 22 -7 5 -4 8 7 8 11 0 17 -7 16 -22 z "/><path d="M 2490 6410 c -35 -29 -35 -29 3 -30 35 0 37 2 37 30 0 17 -1 30 -3 30 -1 0 -18 -13 -37 -30 z "/><path d="M 6520 6420 c 0 -16 -7 -20 -30 -20 -41 0 -38 -12 9 -38 49 -28 51 -27 51 3 0 18 5 25 20 25 13 0 20 -7 20 -19 0 -10 7 -22 16 -25 23 -9 74 -7 74 2 0 7 -143 92 -155 92 -3 0 -5 -9 -5 -20 z "/><path d="M 8190 6405 c 0 -19 5 -35 10 -35 6 0 10 -7 10 -15 0 -8 -7 -15 -15 -15 -21 0 -19 -4 17 -66 35 -59 48 -66 49 -31 0 12 3 16 6 10 2 -7 13 -13 24 -13 12 0 19 -7 19 -20 0 -15 -7 -20 -25 -20 -14 0 -25 -2 -25 -5 0 -3 18 -41 40 -85 53 -106 103 -228 134 -329 25 -84 25 -84 -4 -56 -30 29 -30 29 -30 -6 0 -44 15 -59 58 -59 34 0 34 0 30 50 -1 28 0 50 5 50 4 0 7 -16 7 -35 0 -28 4 -35 20 -35 26 0 25 17 -8 114 -27 80 -51 109 -53 64 0 -22 -1 -22 -9 -3 -13 30 -12 35 10 35 20 0 20 0 -1 58 -49 135 -237 482 -261 482 -4 0 -8 -16 -8 -35 z  m 70 -105 c 0 -5 -7 -10 -15 -10 -8 0 -15 5 -15 10 0 6 7 10 15 10 8 0 15 -4 15 -10 z  m 140 -271 c 0 -18 -2 -19 -15 -5 -8 8 -15 17 -15 20 0 3 7 6 15 6 9 0 15 -9 15 -21 z  m 20 -59 c 0 -5 -4 -10 -10 -10 -5 0 -10 5 -10 10 0 6 5 10 10 10 6 0 10 -4 10 -10 z  m 7 -57 c -4 -3 -7 0 -7 7 0 7 3 10 7 7 3 -4 3 -10 0 -14 z  m 46 -113 c 3 -11 1 -20 -4 -20 -5 0 -9 9 -9 20 0 11 2 20 4 20 2 0 6 -9 9 -20 z "/></g></svg>